<svg width="113" height="101" viewBox="0 0 113 101" fill="none" xmlns="http://www.w3.org/2000/svg">
<path d="M28.0191 8.77048L4.37028 85.7705C2.19814 92.8429 7.48702 100 14.8855 100H78.6374C83.6415 100 88.0151 96.6224 89.2801 91.7808L109.399 14.7808C111.221 7.81037 105.961 1 98.7566 1H38.5343C33.7032 1 29.4375 4.15224 28.0191 8.77048Z" fill="#100B25" stroke="url(#paint0_linear_464_433)" stroke-width="0.5"/>
<path d="M46.4004 35C46.0897 35.0058 45.8671 35.2357 45.8671 35.5313V36.5979C45.8671 36.9534 46.1338 37.1318 46.4004 37.1323C46.667 37.1318 46.9338 36.9534 46.9338 36.5979V35.5313C46.9338 35.2357 46.7112 35.0058 46.4004 35ZM43.1338 36.7563L43.8901 37.5083C44.4163 37.9977 45.1329 37.2604 44.6463 36.7563L43.8901 36C43.7897 35.8968 43.6601 35.8448 43.5161 35.8448C43.034 35.8412 42.801 36.4261 43.1338 36.7563ZM48.9108 36L48.1546 36.7563C47.668 37.2604 48.3846 37.9977 48.9108 37.5083L49.667 36.7563C49.9998 36.4261 49.7669 35.8411 49.2847 35.8448C49.1407 35.8448 49.0112 35.8968 48.9108 36ZM64.7833 38.7959L64.6198 42.5198L63.335 39.9526C63.0834 39.4888 62.6919 39.1882 62.2605 39.051C61.8291 38.9137 61.3588 38.941 60.9491 39.1031C60.7755 39.1717 60.6216 39.2683 60.4793 39.3781C59.7019 38.3406 58.4662 37.6655 57.0679 37.6655C55.5656 37.6678 54.1371 38.4748 53.3763 39.7989H43.2016C43.0602 39.798 42.9241 39.8538 42.8234 39.9531L41.2255 41.5354C41.0151 41.7427 41.0131 42.082 41.2215 42.2916L42.8194 43.9093C43.0283 44.1213 43.3709 44.1213 43.5798 43.9093L44.2683 43.2166L44.9735 43.9135C45.1842 44.1207 45.5224 44.1177 45.7287 43.9062L46.4068 43.225L47.0912 43.9094C47.2992 44.1161 47.6352 44.1161 47.8432 43.9094L48.5318 43.2166L49.2255 43.9094C49.3246 44.0091 49.4589 44.0665 49.5995 44.0677H53.3754C53.5394 44.3398 53.7254 44.5772 53.9212 44.7969C53.2639 45.1241 52.7994 45.8363 52.7994 46.7365V49.9375C52.7994 51.9386 51.7964 53.9329 51.7421 56.3386C51.7205 56.3382 51.6991 56.3331 51.6775 56.3354C51.4966 56.3543 51.3383 56.4634 51.2567 56.626L46.4579 66.2281C46.281 66.5824 46.5379 66.9994 46.9339 67H62.4023C62.6225 66.9991 62.8193 66.8629 62.8981 66.6573L65.5637 59.725C65.6809 59.4168 65.4932 59.0773 65.1699 59.0125L64.722 58.923C64.9959 58.5996 65.4258 58.1613 65.9449 57.6771C66.6832 56.9886 67.5907 56.1849 68.473 55.3354C69.3553 54.486 70.2158 53.5908 70.8708 52.6896C71.5251 51.7894 71.9988 50.8569 72 49.9396C72.0119 48.7566 71.6886 46.5757 71.3667 44.6218C71.0445 42.6666 70.7167 40.9802 70.7167 40.9802C70.541 40.0651 69.9675 39.4771 69.2125 39.3114C68.9237 39.248 68.6222 39.2572 68.3334 39.3271L68.2959 38.7719C68.2945 38.7508 68.2915 38.7303 68.2876 38.7094C68.0879 37.6547 67.2894 37.0713 66.4022 37.1386C65.5686 37.2018 64.8269 37.8466 64.7833 38.7959ZM67.2364 38.9021L67.7322 46.2407C67.7819 46.9522 68.8486 46.8772 68.7989 46.1657L68.4082 40.4281C68.5815 40.3452 68.782 40.3098 68.9843 40.3542C69.24 40.4103 69.5594 40.6067 69.6697 41.1813C69.6697 41.1813 69.9919 42.857 70.3113 44.7959C70.6308 46.7347 70.9432 48.9765 70.9332 49.9334C70.9332 50.4946 70.5989 51.2509 70.0082 52.0636C69.4175 52.8763 68.5932 53.7389 67.7322 54.5678C66.8713 55.3967 65.975 56.1947 65.2208 56.898C64.4863 57.583 63.8995 58.1445 63.5698 58.6918L52.7992 56.5355C52.7992 54.2115 53.8669 52.2243 53.8669 49.9376V46.7365C53.8669 46.0873 54.2402 45.76 54.5638 45.6855C54.8247 45.6253 55.2637 45.6937 55.4982 46.3839C56.2459 48.3343 56.972 50.2737 57.6263 52.2365C57.8281 52.9522 58.9034 52.597 58.6387 51.9021C58.585 51.7409 58.5246 51.5827 58.47 51.4219C58.5872 51.3567 59.6133 50.7819 60.6543 49.949C61.2051 49.5083 61.7453 49.0099 62.1345 48.4573C62.5229 47.9058 62.7922 47.2414 62.5678 46.5708L60.8668 41.2604C60.6795 40.5499 61.0237 40.2194 61.3387 40.0948C61.6811 39.9593 62.1561 40.0157 62.3939 40.4531L66.1969 48.0531C66.5555 48.6742 66.6698 49.4771 66.6698 49.4771C66.7669 50.1831 67.8263 50.0373 67.7292 49.3313C67.7292 49.3313 67.6085 48.3933 67.1386 47.5552L65.6022 44.4854L65.8511 38.8427C65.8703 38.4257 66.2008 38.2225 66.4844 38.201C66.7288 38.1825 67.1161 38.2832 67.2364 38.9021ZM60.1866 42.6407C59.8629 44.0712 58.5827 45.1344 57.0679 45.1344C55.832 45.133 54.7112 44.4198 54.1815 43.3032C54.0924 43.1169 53.9036 42.9988 53.6971 43H49.8191L48.9097 42.0907C48.7017 41.8839 48.3657 41.8839 48.1577 42.0907L47.4692 42.7834L46.7765 42.0907C46.568 41.8813 46.2287 41.8813 46.0202 42.0907L45.3432 42.7761L44.6421 42.0865C44.433 41.8808 44.097 41.8828 43.8901 42.0907L43.2057 42.7761L42.3547 41.9178L43.4182 40.8668H53.6971C53.9036 40.868 54.0924 40.7499 54.1815 40.5636C54.711 39.4473 55.8324 38.7342 57.0679 38.7323C58.2418 38.7323 59.2735 39.3721 59.8303 40.325C59.7258 40.6852 59.7168 41.0964 59.8392 41.5537L60.1866 42.6407ZM57.0679 40.3334C56.1781 40.3334 55.4669 41.056 55.4669 41.9334C55.4669 42.8107 56.1739 43.5334 57.0679 43.5334C57.9619 43.5334 58.6668 42.8107 58.6668 41.9334C58.6668 41.056 57.9577 40.3334 57.0679 40.3334ZM61.5532 46.9021C61.6273 47.1196 61.5558 47.4293 61.2647 47.8428C60.9735 48.2562 60.4944 48.7142 59.9887 49.1188C59.1527 49.7876 58.3961 50.2306 58.1095 50.3949C57.6111 48.978 57.093 47.5693 56.5564 46.1709C56.7244 46.1896 56.8949 46.2009 57.0679 46.2011C58.5922 46.2011 59.9268 45.3899 60.6813 44.1813L61.5532 46.9021ZM44.8005 45.1355C44.5605 45.1344 44.3495 45.2939 44.2849 45.5251C43.8353 47.1727 42.7464 48.4183 41.4193 48.899C40.9486 49.0681 40.9486 49.7351 41.4193 49.9042C42.747 50.3831 43.8379 51.6269 44.289 53.274C44.4342 53.7943 45.1721 53.7943 45.3171 53.274C45.7667 51.6264 46.8556 50.3807 48.1827 49.9001C48.6534 49.731 48.6534 49.064 48.1827 48.8949C46.855 48.416 45.764 47.1722 45.313 45.5251C45.2487 45.2953 45.0391 45.1363 44.8005 45.1355ZM47.9952 52.6032C47.7566 52.6043 47.5469 52.763 47.4827 52.9928C47.1987 53.9959 46.5146 54.7468 45.6879 55.0355C45.2173 55.2046 45.2173 55.8705 45.6879 56.0397C46.515 56.3273 47.202 57.0807 47.4869 58.0834C47.6368 58.5944 48.3609 58.5944 48.5108 58.0834C48.7947 57.0804 49.4788 56.3283 50.3055 56.0397C50.7837 55.8738 50.7837 55.1972 50.3055 55.0314C49.4785 54.7438 48.7957 53.9956 48.5108 52.9928C48.4463 52.7616 48.2352 52.6023 47.9952 52.6032ZM42.9328 55.2678C42.6899 55.2672 42.477 55.4318 42.4151 55.6668C42.0846 56.9356 41.2871 57.8799 40.3443 58.2376C39.8827 58.4147 39.8877 59.0584 40.3443 59.2335C41.2874 59.5898 42.0876 60.5327 42.4193 61.8012C42.559 62.3311 43.3107 62.3311 43.4505 61.8012C43.781 60.5324 44.5827 59.587 45.5254 59.2293C45.9813 59.0525 45.9784 58.4067 45.5192 58.2334C44.5761 57.8771 43.78 56.9352 43.4484 55.6668C43.3869 55.4331 43.1763 55.2688 42.9349 55.2678H42.9328Z" fill="url(#paint1_linear_464_433)"/>
<defs>
<linearGradient id="paint0_linear_464_433" x1="65.0001" y1="-17.5" x2="115.186" y2="68.9165" gradientUnits="userSpaceOnUse">
<stop stop-color="#020212"/>
<stop offset="0.415687" stop-color="#DDB4C2"/>
<stop offset="0.612975" stop-color="#9B8AEA"/>
<stop offset="1" stop-color="#020212"/>
</linearGradient>
<linearGradient id="paint1_linear_464_433" x1="32.5" y1="22" x2="86.7353" y2="23.7509" gradientUnits="userSpaceOnUse">
<stop stop-color="#1A49E9"/>
<stop offset="0.252064" stop-color="#DDB4C2"/>
<stop offset="0.654224" stop-color="#9B8AEA"/>
<stop offset="1" stop-color="#189DC8"/>
</linearGradient>
</defs>
</svg>
