<svg width="926" height="330" viewBox="0 0 926 330" fill="none" xmlns="http://www.w3.org/2000/svg">
<path d="M893.169 1H83.3513C68.0022 1 54.815 11.8985 51.924 26.9728L1.29302 290.973C-2.49101 310.703 12.63 329 32.7203 329H863.25C879.529 329 893.214 316.779 895.047 300.603L924.965 36.6034C927.116 17.6245 912.269 1 893.169 1Z" stroke="white"/>
<path d="M893.169 1H83.3513C68.0022 1 54.815 11.8985 51.924 26.9728L1.29302 290.973C-2.49101 310.703 12.63 329 32.7203 329H863.25C879.529 329 893.214 316.779 895.047 300.603L924.965 36.6034C927.116 17.6245 912.269 1 893.169 1Z" stroke="url(#paint0_linear_48_111)"/>
<defs>
<linearGradient id="paint0_linear_48_111" x1="470" y1="-108.5" x2="470.159" y2="404.959" gradientUnits="userSpaceOnUse">
<stop offset="0.229065" stop-color="#1A49E9"/>
<stop offset="0.371643" stop-color="#DDB4C2"/>
<stop offset="0.508577" stop-color="#9B8AEA"/>
<stop offset="0.670568" stop-color="#189DC8"/>
<stop offset="0.846285" stop-color="#050517"/>
</linearGradient>
</defs>
</svg>
