<svg width="113" height="101" viewBox="0 0 113 101" fill="none" xmlns="http://www.w3.org/2000/svg">
<path d="M28.0191 8.77048L4.37028 85.7705C2.19814 92.8429 7.48702 100 14.8855 100H78.6374C83.6415 100 88.0151 96.6224 89.2801 91.7808L109.399 14.7808C111.221 7.81037 105.961 1 98.7566 1H38.5343C33.7032 1 29.4375 4.15224 28.0191 8.77048Z" fill="#100B25" stroke="url(#paint0_linear_464_435)" stroke-width="0.5"/>
<path fill-rule="evenodd" clip-rule="evenodd" d="M52.794 61.4469V60.8532C52.794 58.8133 54.4496 57.1578 56.4895 57.1578C58.5294 57.1578 60.1849 58.8133 60.1849 60.8532V61.4469C64.4889 59.9244 67.5758 55.8163 67.5758 50.9926C67.5758 44.8741 62.6079 39.9062 56.4895 39.9062C50.3711 39.9062 45.4032 44.8741 45.4032 50.9926C45.4032 55.8163 48.4901 59.9244 52.794 61.4469ZM59.2574 53.4562C58.5799 54.21 57.5993 54.6843 56.5079 54.6843C55.4079 54.6843 54.42 54.2014 53.7425 53.4377C53.2917 52.929 52.512 52.8822 52.0032 53.333C51.4945 53.7851 51.4477 54.5636 51.8985 55.0723C53.0281 56.3448 54.675 57.1479 56.5079 57.1479C58.3261 57.1479 59.9619 56.3583 61.0891 55.1031C61.5436 54.5981 61.5017 53.8183 60.9967 53.3638C60.4904 52.9093 59.7119 52.9511 59.2574 53.4562Z" fill="url(#paint1_linear_464_435)"/>
<path fill-rule="evenodd" clip-rule="evenodd" d="M40.88 47.4093C39.233 47.7776 38 49.2496 38 51.0074C38 53.0436 39.6531 54.6954 41.688 54.6954C43.7242 54.6954 45.3761 53.0436 45.3761 51.0074C45.3761 49.5662 44.5471 48.3171 43.3411 47.7111C44.8095 41.8267 50.1432 37.4636 56.4895 37.4636C62.8296 37.4636 68.1584 41.8193 69.6342 47.6938C68.4085 48.2925 67.5635 49.5526 67.5635 51.0074C67.5635 52.4597 68.4048 53.7161 69.6255 54.3185C69.6206 54.3382 69.6144 54.3591 69.6095 54.3789C68.2003 59.821 63.4776 63.9377 57.7213 64.4575V60.8533C57.7213 60.1733 57.1695 59.6214 56.4895 59.6214C55.8095 59.6214 55.2577 60.1733 55.2577 60.8533V65.7682C55.2577 66.4481 55.8095 67 56.4895 67C56.5757 67 56.6607 66.9914 56.742 66.9741C64.0824 66.8608 70.2304 61.8055 71.9943 54.9972C72.0288 54.8654 72.0608 54.7324 72.0916 54.5994C73.7225 54.2187 74.9396 52.7541 74.9396 51.0074C74.9396 49.2644 73.7275 47.8022 72.1015 47.4191C70.4755 40.3116 64.0996 35 56.4895 35C48.8831 35 42.5097 40.3066 40.88 47.4093Z" fill="url(#paint2_linear_464_435)"/>
<defs>
<linearGradient id="paint0_linear_464_435" x1="65.0001" y1="-17.5" x2="115.186" y2="68.9165" gradientUnits="userSpaceOnUse">
<stop stop-color="#020212"/>
<stop offset="0.415687" stop-color="#DDB4C2"/>
<stop offset="0.612975" stop-color="#9B8AEA"/>
<stop offset="1" stop-color="#020212"/>
</linearGradient>
<linearGradient id="paint1_linear_464_435" x1="40.2065" y1="31.1553" x2="77.7831" y2="32.404" gradientUnits="userSpaceOnUse">
<stop stop-color="#1A49E9"/>
<stop offset="0.252064" stop-color="#DDB4C2"/>
<stop offset="0.654224" stop-color="#9B8AEA"/>
<stop offset="1" stop-color="#189DC8"/>
</linearGradient>
<linearGradient id="paint2_linear_464_435" x1="29.3424" y1="22" x2="91.9272" y2="24.3324" gradientUnits="userSpaceOnUse">
<stop stop-color="#1A49E9"/>
<stop offset="0.252064" stop-color="#DDB4C2"/>
<stop offset="0.654224" stop-color="#9B8AEA"/>
<stop offset="1" stop-color="#189DC8"/>
</linearGradient>
</defs>
</svg>
