<svg width="167" height="32" viewBox="0 0 167 32" fill="none" xmlns="http://www.w3.org/2000/svg">
<g id="Group 8">
<g id="Group 3">
<rect id="Rectangle 17" x="0.557343" y="0.16394" width="30.8516" height="30.8516" fill="#62B27F"/>
<path id="Star 2" d="M15.9831 6.7749L18.064 13.2282H24.7979L15.9831 18.2934L19.5262 17.0481L21.4309 23.6698L15.9831 19.6815L10.5353 23.6698L12.6162 17.2165L7.1684 13.2282H13.9023L15.9831 6.7749Z" fill="white"/>
</g>
<g id="Group 4">
<rect id="Rectangle 17_2" x="34.3472" y="0.163879" width="30.8516" height="30.8516" fill="#62B27F"/>
<path id="Star 2_2" d="M49.773 6.7749L51.8538 13.2282H58.5877L49.773 18.2934L53.316 17.0481L55.2208 23.6698L49.773 19.6815L44.3252 23.6698L46.406 17.2165L40.9582 13.2282H47.6921L49.773 6.7749Z" fill="white"/>
</g>
<g id="Group 5">
<rect id="Rectangle 17_3" x="68.137" y="0.163879" width="30.8516" height="30.8516" fill="#62B27F"/>
<path id="Star 2_3" d="M83.5628 6.7749L85.6437 13.2282H92.3776L83.5628 18.2934L87.1059 17.0481L89.0106 23.6698L83.5628 19.6815L78.115 23.6698L80.1959 17.2165L74.7481 13.2282H81.4819L83.5628 6.7749Z" fill="white"/>
</g>
<g id="Group 6">
<rect id="Rectangle 17_4" x="101.927" y="0.163879" width="30.8516" height="30.8516" fill="#62B27F"/>
<path id="Star 2_4" d="M117.353 6.7749L119.434 13.2282H126.167L117.353 18.2934L120.896 17.0481L122.8 23.6698L117.353 19.6815L111.905 23.6698L113.986 17.2165L108.538 13.2282H115.272L117.353 6.7749Z" fill="white"/>
</g>
<g id="Group 7">
<rect id="Rectangle 17_5" x="135.717" y="0.163879" width="30.8516" height="30.8516" fill="#62B27F"/>
</g>
<g id="Mask group">
<mask id="mask0_28_41" style="mask-type:alpha" maskUnits="userSpaceOnUse" x="135" y="0" width="32" height="32">
<rect id="Rectangle 18" x="135.717" y="0.163879" width="30.8516" height="30.8516" fill="#62B27F"/>
</mask>
<g mask="url(#mask0_28_41)">
<rect id="Rectangle 19" x="150.408" y="0.163879" width="16.1604" height="30.8516" fill="#DCDCE5"/>
</g>
</g>
<path id="Star 2_5" d="M151.142 6.7749L153.223 13.2282H159.957L151.142 18.2934L154.686 17.0481L156.59 23.6698L151.142 19.6815L145.695 23.6698L147.776 17.2165L142.328 13.2282H149.062L151.142 6.7749Z" fill="white"/>
</g>
</svg>
