<?xml version="1.0" standalone="no"?>
<!DOCTYPE svg PUBLIC "-//W3C//DTD SVG 20010904//EN"
 "http://www.w3.org/TR/2001/REC-SVG-20010904/DTD/svg10.dtd">
<svg version="1.0" xmlns="http://www.w3.org/2000/svg"
 width="1435.000000pt" height="574.000000pt" viewBox="0 0 1435.000000 574.000000"
 preserveAspectRatio="xMidYMid meet">

<g transform="translate(0.000000,574.000000) scale(0.100000,-0.100000)"
fill="#000000" stroke="none">
<path d="M2 4773 l3 -936 195 -109 c392 -218 985 -506 1412 -684 348 -145 798
-311 798 -294 0 6 3 9 7 8 11 -3 80 30 135 65 25 16 49 28 51 26 3 -2 14 4 25
14 11 10 30 20 44 22 13 3 53 19 88 37 36 17 74 33 85 35 10 2 22 7 25 11 3 4
14 9 25 10 11 2 22 8 23 13 2 5 12 9 21 9 10 0 21 3 25 8 7 7 11 8 37 11 5 0
7 5 4 11 -3 5 -1 10 4 10 6 0 11 -5 11 -11 0 -6 7 -4 15 5 9 8 31 18 50 22 20
3 38 10 41 15 3 5 9 7 14 4 4 -3 13 2 20 10 7 8 25 15 41 15 16 0 38 9 49 20
23 23 34 26 25 8 -4 -7 2 -3 13 10 22 24 38 30 26 10 -6 -10 -4 -10 8 0 8 7
24 10 34 6 14 -4 15 -3 5 4 -8 6 -9 12 -3 16 6 3 13 2 17 -4 3 -5 11 -10 16
-10 6 0 8 4 5 9 -3 5 4 12 17 16 12 4 25 8 30 10 4 1 10 3 15 4 4 1 0 6 -8 11
-11 7 -12 10 -2 10 7 0 21 -7 30 -16 14 -15 17 -15 27 -1 6 9 24 17 41 19 16
2 32 7 35 11 3 4 15 9 27 10 11 0 19 4 17 8 -3 3 23 10 58 14 45 5 56 9 42 15
-14 5 -3 9 40 15 72 8 90 13 52 14 -16 1 -26 5 -23 10 3 4 18 6 33 3 16 -2 25
-1 20 3 -9 10 21 45 40 45 7 0 13 -5 13 -10 0 -7 6 -8 16 -2 9 5 26 7 38 5 17
-4 18 -3 6 6 -12 9 -11 11 8 11 16 0 21 -4 16 -12 -5 -9 -2 -8 10 1 13 11 14
16 4 22 -9 6 -4 9 15 9 27 0 29 3 29 40 0 34 -2 40 -13 40 -5 0 -7 -4 -4 -10
3 -5 0 -10 -8 -10 -10 0 -13 7 -10 19 3 13 11 17 26 14 18 -4 19 -3 7 6 -8 5
-26 7 -40 4 -22 -6 -23 -4 -12 9 16 20 -3 37 -21 19 -6 -6 -16 -11 -22 -11 -5
0 -3 5 5 10 12 8 9 10 -12 10 -29 0 -38 14 -15 23 7 3 5 6 -5 6 -10 1 -18 -4
-18 -11 0 -6 -3 -9 -6 -5 -4 3 -14 -2 -23 -11 -9 -10 -13 -13 -8 -8 15 20 6
28 -23 24 -17 -3 -34 0 -37 5 -3 6 -1 7 5 3 7 -4 12 -3 12 2 0 6 -7 12 -15 16
-9 3 -15 0 -15 -8 0 -7 -6 -13 -14 -13 -8 0 -12 6 -9 12 5 16 -12 22 -60 21
-20 -1 -37 1 -37 4 0 3 -17 7 -37 8 -21 1 -54 3 -75 5 -20 1 -34 5 -31 10 2 4
-5 7 -17 7 -12 0 -19 -4 -16 -8 3 -5 -1 -9 -9 -9 -8 0 -12 4 -10 8 3 3 -4 9
-15 12 -11 3 -20 2 -20 -1 0 -8 -175 -6 -196 2 -8 3 -14 1 -14 -5 0 -7 -26 -9
-70 -7 -41 2 -72 -1 -74 -7 -3 -5 -5 -4 -5 3 -1 6 -6 12 -12 12 -5 0 -7 -4 -4
-10 3 -5 2 -10 -4 -10 -5 0 -11 6 -14 13 -3 9 -7 9 -20 -2 -10 -7 -17 -10 -17
-5 0 5 -53 9 -118 10 -127 1 -368 13 -392 19 -8 2 -37 7 -65 11 -27 3 -52 8
-55 9 -3 2 -37 6 -75 10 -39 4 -95 12 -125 19 -30 8 -93 22 -140 32 -47 10
-87 21 -90 24 -6 7 -87 28 -139 35 -38 6 -257 100 -281 120 -8 7 -46 29 -84
50 -39 20 -80 47 -92 61 -13 13 -26 24 -29 24 -22 0 -165 193 -162 220 1 15
-16 50 -24 50 -6 0 -8 4 -4 9 3 5 0 13 -6 17 -18 11 -3 213 21 274 33 83 68
147 85 153 8 4 15 12 15 19 0 7 26 37 58 67 31 30 52 56 47 58 -6 1 -87 44
-180 95 -361 194 -756 429 -1043 620 l-132 88 2 -937z m3668 -1193 c18 -12 2
-12 -25 0 -13 6 -15 9 -5 9 8 0 22 -4 30 -9z m74 -2 c-3 -4 -9 -8 -15 -8 -5 0
-9 4 -9 8 0 5 7 9 15 9 8 0 12 -4 9 -9z m106 -32 c0 -3 -4 -8 -10 -11 -5 -3
-10 -1 -10 4 0 6 5 11 10 11 6 0 10 -2 10 -4z m185 -126 c-3 -5 -12 -10 -18
-10 -7 0 -6 4 3 10 19 12 23 12 15 0z"/>
<path d="M14182 5599 c-225 -148 -454 -288 -705 -431 -117 -66 -216 -124 -220
-128 -4 -4 18 -20 50 -36 32 -16 64 -35 71 -41 7 -7 20 -13 28 -13 8 0 14 -3
14 -8 0 -4 26 -27 58 -51 141 -107 232 -271 237 -425 2 -39 -2 -77 -7 -83 -6
-7 -7 -13 -4 -13 4 0 2 -10 -5 -21 -8 -16 -8 -20 1 -14 6 4 2 -11 -9 -34 -12
-22 -21 -46 -21 -52 0 -23 -109 -174 -147 -204 -21 -16 -40 -30 -43 -30 -12 0
-48 -44 -42 -51 4 -4 2 -4 -5 -1 -6 4 -42 -11 -80 -32 -171 -97 -377 -180
-482 -195 -23 -3 -46 -8 -50 -11 -14 -8 -280 -64 -356 -75 -38 -5 -117 -16
-175 -25 -147 -21 -368 -30 -693 -28 -211 1 -276 -1 -270 -10 5 -9 3 -9 -8 -1
-8 7 -26 10 -42 8 -15 -1 -25 1 -23 5 3 4 -1 8 -9 8 -8 0 -12 -4 -10 -8 3 -3
-4 -9 -15 -12 -11 -3 -23 -1 -26 5 -4 6 -9 6 -14 -2 -5 -7 -21 -14 -37 -16
-47 -4 -76 -13 -84 -25 -4 -7 -14 -9 -24 -6 -9 4 -14 3 -10 -3 3 -6 -1 -10 -9
-10 -9 0 -16 5 -16 10 0 6 -7 10 -16 10 -8 0 -12 -4 -9 -10 3 -5 -7 -13 -22
-17 -40 -10 -40 -10 -72 -12 -24 -1 -28 -5 -26 -26 2 -17 -2 -25 -12 -25 -13
0 -13 2 -2 17 12 14 12 16 -1 11 -19 -6 -15 -54 6 -75 8 -8 14 -21 14 -29 0
-16 16 -19 25 -4 3 6 11 10 17 10 7 0 7 -5 -1 -14 -9 -11 -6 -15 16 -21 21 -5
24 -8 12 -16 -10 -6 -7 -9 13 -9 17 0 27 -5 25 -12 -1 -8 6 -12 17 -10 10 2
15 -1 12 -7 -8 -12 16 -20 67 -23 21 -1 41 -6 44 -12 3 -5 1 -6 -5 -2 -7 4
-12 3 -12 -3 0 -5 27 -13 61 -17 33 -4 55 -10 49 -14 -8 -5 0 -11 19 -18 17
-6 31 -9 31 -6 0 3 7 -2 16 -10 16 -17 39 -22 30 -7 -3 4 14 1 39 -8 29 -10
40 -18 32 -24 -7 -5 1 -7 20 -5 18 3 30 1 28 -3 -4 -6 20 -20 35 -20 3 0 8 -7
13 -14 4 -8 15 -11 23 -8 9 3 20 0 24 -7 5 -8 21 -15 37 -18 15 -2 30 -7 33
-11 3 -5 23 -14 45 -21 22 -7 44 -16 50 -21 5 -5 16 -9 25 -9 10 0 27 -9 40
-20 13 -11 29 -20 36 -20 17 0 93 -38 117 -58 14 -13 17 -13 17 -1 0 8 3 10 8
4 13 -18 47 -42 38 -26 -6 9 -1 8 16 -3 14 -9 27 -13 30 -10 4 3 9 -4 13 -16
4 -12 13 -19 20 -17 7 3 18 0 24 -6 6 -6 11 -8 11 -3 0 4 7 0 16 -8 8 -9 19
-14 24 -11 5 3 10 0 12 -6 5 -14 130 30 468 166 375 151 613 259 1010 457 313
155 718 372 742 396 4 4 7 427 6 938 l-3 930 -163 -107z m-3047 -2329 c3 -5 1
-10 -4 -10 -6 0 -11 5 -11 10 0 6 2 10 4 10 3 0 8 -4 11 -10z"/>
<path d="M10895 3529 c-15 -6 -9 -7 19 -4 22 3 42 8 45 10 8 9 -43 4 -64 -6z"/>
<path d="M10794 3471 c4 -5 1 -12 -4 -14 -6 -3 -5 -4 2 -3 15 3 23 26 8 26 -6
0 -9 -4 -6 -9z"/>
<path d="M4060 3449 c0 -5 5 -7 10 -4 6 3 10 8 10 11 0 2 -4 4 -10 4 -5 0 -10
-5 -10 -11z"/>
<path d="M10833 3395 c0 -8 4 -12 9 -9 5 3 6 10 3 15 -9 13 -12 11 -12 -6z"/>
<path d="M3861 3346 c-13 -15 -1 -29 14 -18 13 9 17 32 6 32 -5 0 -14 -6 -20
-14z"/>
</g>
</svg>
