<svg width="113" height="101" viewBox="0 0 113 101" fill="none" xmlns="http://www.w3.org/2000/svg">
<path d="M28.0191 8.77048L4.37028 85.7705C2.19814 92.8429 7.48702 100 14.8855 100H78.6374C83.6415 100 88.0151 96.6224 89.2801 91.7808L109.399 14.7808C111.221 7.81037 105.961 1 98.7566 1H38.5343C33.7032 1 29.4375 4.15224 28.0191 8.77048Z" fill="#100B25" stroke="url(#paint0_linear_464_438)" stroke-width="0.5"/>
<path d="M68.2954 45.5841C68.5062 45.706 68.7358 45.7638 68.9626 45.7638C69.4235 45.7638 69.8719 45.5245 70.1192 45.0965C70.2402 44.8875 70.298 44.6588 70.2989 44.4328C70.2998 43.9711 70.0605 43.5209 69.6317 43.2736C68.9938 42.9044 68.1779 43.1223 67.8087 43.7602C67.6877 43.9702 67.6299 44.1988 67.629 44.4239C67.6281 44.8866 67.8674 45.3358 68.2954 45.5841Z" fill="url(#paint1_linear_464_438)"/>
<path d="M56.3265 55.2923C55.9012 55.5405 55.6645 55.988 55.6654 56.4471C55.6654 56.6748 55.7242 56.9061 55.8478 57.1179C56.096 57.5423 56.5427 57.7789 57.0008 57.7789C57.2295 57.7789 57.4617 57.7202 57.6726 57.5965C58.0978 57.3483 58.3345 56.9017 58.3345 56.4417C58.3345 56.214 58.2758 55.9826 58.1521 55.7718C57.7802 55.1348 56.9635 54.9204 56.3265 55.2923Z" fill="url(#paint2_linear_464_438)"/>
<path d="M60.1565 45.7887C60.3861 45.7887 60.6183 45.73 60.83 45.6054C61.2544 45.3563 61.491 44.9088 61.4901 44.4497C61.4893 44.222 61.4305 43.9907 61.3069 43.7789C60.9341 43.1437 60.1165 42.9302 59.4804 43.3029C59.056 43.5512 58.8193 43.9987 58.8202 44.4577C58.8211 44.6864 58.8798 44.9177 59.0035 45.1286C59.2517 45.5529 59.6983 45.7887 60.1565 45.7887Z" fill="url(#paint3_linear_464_438)"/>
<path d="M55.8132 53.4016C56.5471 53.398 57.1406 52.8028 57.1423 52.0697V52.0617C57.1388 51.3242 56.5391 50.729 55.8025 50.7326C55.0676 50.7361 54.4751 51.3313 54.4733 52.0644V52.0724C54.476 52.8082 55.0729 53.4016 55.8078 53.4016H55.8132Z" fill="url(#paint4_linear_464_438)"/>
<path d="M64.5809 44.5903C65.3176 44.5903 65.9155 43.9924 65.9155 43.2558C65.9155 42.5191 65.3176 41.9213 64.5809 41.9213C63.8434 41.9213 63.2464 42.5191 63.2464 43.2558C63.2464 43.9933 63.8434 44.5903 64.5809 44.5903Z" fill="url(#paint5_linear_464_438)"/>
<path d="M56.2989 48.8368C56.508 48.9569 56.7357 49.0139 56.9608 49.0139C57.4235 49.0139 57.8736 48.7728 58.1201 48.3422C58.2402 48.1322 58.2971 47.9036 58.2971 47.6776C58.2962 47.2158 58.0551 46.7674 57.6254 46.521C56.9857 46.1544 56.1699 46.376 55.8042 47.0157C55.6832 47.2256 55.6272 47.4543 55.6272 47.6802C55.6281 48.142 55.8692 48.5913 56.2989 48.8368Z" fill="url(#paint6_linear_464_438)"/>
<path d="M60.8852 58.4845C60.2455 58.117 59.4296 58.3377 59.0631 58.9774C58.9421 59.1864 58.8852 59.4151 58.8852 59.6411C58.8852 60.1028 59.1263 60.5521 59.5551 60.7994V60.7985C59.7651 60.9195 59.9937 60.9765 60.2188 60.9765C60.6814 60.9765 61.1307 60.7363 61.3772 60.3065C61.4981 60.0966 61.5551 59.8679 61.5551 59.6428C61.5551 59.1802 61.314 58.7309 60.8852 58.4845Z" fill="url(#paint7_linear_464_438)"/>
<path d="M72.8541 55.2442C72.2153 54.8768 71.3994 55.0957 71.0311 55.7345C70.9101 55.9435 70.8532 56.1722 70.8523 56.3982C70.8523 56.8599 71.0916 57.3092 71.5213 57.5565C71.7313 57.6775 71.9599 57.7353 72.1859 57.7353C72.6477 57.7353 73.0961 57.496 73.3434 57.0672C73.4644 56.8572 73.5213 56.6286 73.5222 56.4035C73.5222 55.9409 73.2829 55.4916 72.8541 55.2442Z" fill="url(#paint8_linear_464_438)"/>
<path d="M72.1761 48.9702C72.4039 48.9702 72.6334 48.9123 72.8443 48.7896C73.2704 48.5422 73.5089 48.0965 73.5098 47.6365C73.5098 47.4088 73.4519 47.1775 73.3292 46.9657C72.9591 46.3278 72.1423 46.1107 71.5053 46.4808C71.0792 46.7282 70.8407 47.1748 70.8398 47.6339C70.8398 47.8616 70.8977 48.0929 71.0204 48.3047C71.2678 48.7317 71.7162 48.9702 72.1761 48.9702Z" fill="url(#paint9_linear_464_438)"/>
<path d="M73.3523 50.682C72.6147 50.6829 72.0186 51.2808 72.0195 52.0183C72.0204 52.7541 72.6183 53.351 73.354 53.351H73.3558C74.0934 53.3493 74.6895 52.7514 74.6886 52.0139C74.6877 51.2772 74.0889 50.6802 73.3523 50.682Z" fill="url(#paint10_linear_464_438)"/>
<path d="M64.6023 59.4674C63.8656 59.4692 63.2696 60.0688 63.2722 60.8055C63.274 61.5413 63.871 62.1364 64.6059 62.1364H64.6103C65.347 62.1347 65.943 61.535 65.9413 60.7984C65.9386 60.0608 65.3398 59.4656 64.6023 59.4674Z" fill="url(#paint11_linear_464_438)"/>
<path d="M68.314 58.4631C67.8887 58.7104 67.6512 59.157 67.6503 59.617C67.6503 59.8447 67.709 60.076 67.8318 60.2878C68.08 60.713 68.5275 60.9506 68.9866 60.9506C69.2144 60.9506 69.4457 60.8928 69.6565 60.77C70.0818 60.5218 70.3202 60.0751 70.3202 59.6161C70.3202 59.3874 70.2615 59.1561 70.1387 58.9453C69.7677 58.3082 68.951 58.0921 68.314 58.4631Z" fill="url(#paint12_linear_464_438)"/>
<path d="M64.5809 64.331C57.7977 64.331 52.2792 58.8125 52.2792 52.0294C52.2792 45.2463 57.7977 39.7278 64.5809 39.7278C71.364 39.7278 76.8825 45.2463 76.8825 52.0294C76.8825 58.8125 71.364 64.331 64.5809 64.331ZM74.824 41.1223L75.5392 40.407L76.6916 41.5593C76.9521 41.82 77.2936 41.9502 77.6352 41.9502C77.9767 41.9502 78.3183 41.82 78.5788 41.5593C79.0999 41.0381 79.0999 40.1932 78.5788 39.672L76.4849 37.5782C76.4842 37.5774 76.4836 37.5766 76.4828 37.5759C76.4821 37.5752 76.4813 37.5746 76.4806 37.5739L74.2976 35.3909C73.7765 34.8697 72.9315 34.8697 72.4103 35.3909C71.8893 35.9121 71.8893 36.757 72.4103 37.2782L73.6519 38.5197L72.7086 39.463C70.3664 37.9429 67.5751 37.0588 64.5809 37.0588C61.5867 37.0588 58.7953 37.9429 56.4532 39.4631L55.5098 38.5197L56.7513 37.2782C57.2725 36.757 57.2725 35.9121 56.7513 35.3909C56.2302 34.8697 55.3852 34.8697 54.864 35.3909L52.6813 37.5737C52.6805 37.5745 52.6796 37.5751 52.6788 37.5759C52.678 37.5767 52.6774 37.5776 52.6766 37.5784L50.583 39.672C50.0618 40.1932 50.0618 41.0382 50.583 41.5593C50.8435 41.82 51.185 41.9502 51.5266 41.9502C51.8681 41.9502 52.2097 41.82 52.4702 41.5593L53.6225 40.4071L54.3378 41.1224C51.4297 43.855 49.6102 47.7335 49.6102 52.0294C49.6102 60.2842 56.326 67 64.5809 67C72.8358 67 79.5515 60.2842 79.5515 52.0294C79.5515 47.7334 77.732 43.855 74.824 41.1223Z" fill="url(#paint13_linear_464_438)"/>
<path d="M64.9715 54.4772L67.9807 51.4683C68.502 50.9472 68.502 50.1022 67.9808 49.581C67.4597 49.0598 66.6147 49.0598 66.0935 49.5809L64.028 51.6463L63.0683 50.6868C62.5471 50.1657 61.7021 50.1657 61.181 50.6869C60.6599 51.2082 60.6599 52.0531 61.1812 52.5743L63.0844 54.4772C63.3449 54.7378 63.6865 54.868 64.028 54.868C64.3694 54.868 64.711 54.7378 64.9715 54.4772Z" fill="url(#paint14_linear_464_438)"/>
<path d="M46.3649 40.3929H42.6256C41.8886 40.3929 41.2911 40.9905 41.2911 41.7275C41.2911 42.4645 41.8886 43.062 42.6256 43.062H46.3649C47.102 43.062 47.6995 42.4645 47.6995 41.7275C47.6995 40.9905 47.102 40.3929 46.3649 40.3929Z" fill="url(#paint15_linear_464_438)"/>
<path d="M46.3649 45.5431H41.2326C40.4956 45.5431 39.8981 46.1406 39.8981 46.8776C39.8981 47.6146 40.4956 48.2121 41.2326 48.2121H46.3649C47.1019 48.2121 47.6994 47.6146 47.6994 46.8776C47.6994 46.1406 47.1019 45.5431 46.3649 45.5431Z" fill="url(#paint16_linear_464_438)"/>
<path d="M46.365 50.6943H38.9794C38.2424 50.6943 37.6449 51.2918 37.6449 52.0289C37.6449 52.7659 38.2424 53.3634 38.9794 53.3634H46.365C47.102 53.3634 47.6995 52.7659 47.6995 52.0289C47.6995 51.2918 47.102 50.6943 46.365 50.6943Z" fill="url(#paint17_linear_464_438)"/>
<path d="M46.365 55.8447H37.1405C36.4035 55.8447 35.806 56.4422 35.806 57.1792C35.806 57.9163 36.4035 58.5138 37.1405 58.5138H46.365C47.102 58.5138 47.6995 57.9163 47.6995 57.1792C47.6995 56.4422 47.102 55.8447 46.365 55.8447Z" fill="url(#paint18_linear_464_438)"/>
<path d="M46.3649 60.9961H35.3345C34.5975 60.9961 34 61.5936 34 62.3306C34 63.0676 34.5975 63.6651 35.3345 63.6651H46.3649C47.1019 63.6651 47.6994 63.0676 47.6994 62.3306C47.6994 61.5936 47.1019 60.9961 46.3649 60.9961Z" fill="url(#paint19_linear_464_438)"/>
<defs>
<linearGradient id="paint0_linear_464_438" x1="65.0001" y1="-17.5" x2="115.186" y2="68.9165" gradientUnits="userSpaceOnUse">
<stop stop-color="#020212"/>
<stop offset="0.415687" stop-color="#DDB4C2"/>
<stop offset="0.612975" stop-color="#9B8AEA"/>
<stop offset="1" stop-color="#020212"/>
</linearGradient>
<linearGradient id="paint1_linear_464_438" x1="67.0032" y1="42.0092" x2="71.5283" y2="42.1553" gradientUnits="userSpaceOnUse">
<stop stop-color="#1A49E9"/>
<stop offset="0.252064" stop-color="#DDB4C2"/>
<stop offset="0.654224" stop-color="#9B8AEA"/>
<stop offset="1" stop-color="#189DC8"/>
</linearGradient>
<linearGradient id="paint2_linear_464_438" x1="55.0399" y1="54.0254" x2="59.5635" y2="54.1714" gradientUnits="userSpaceOnUse">
<stop stop-color="#1A49E9"/>
<stop offset="0.252064" stop-color="#DDB4C2"/>
<stop offset="0.654224" stop-color="#9B8AEA"/>
<stop offset="1" stop-color="#189DC8"/>
</linearGradient>
<linearGradient id="paint3_linear_464_438" x1="58.1945" y1="42.0351" x2="62.7196" y2="42.1813" gradientUnits="userSpaceOnUse">
<stop stop-color="#1A49E9"/>
<stop offset="0.252064" stop-color="#DDB4C2"/>
<stop offset="0.654224" stop-color="#9B8AEA"/>
<stop offset="1" stop-color="#189DC8"/>
</linearGradient>
<linearGradient id="paint4_linear_464_438" x1="53.8477" y1="49.6482" x2="58.3713" y2="49.7943" gradientUnits="userSpaceOnUse">
<stop stop-color="#1A49E9"/>
<stop offset="0.252064" stop-color="#DDB4C2"/>
<stop offset="0.654224" stop-color="#9B8AEA"/>
<stop offset="1" stop-color="#189DC8"/>
</linearGradient>
<linearGradient id="paint5_linear_464_438" x1="62.6209" y1="40.837" x2="67.1445" y2="40.983" gradientUnits="userSpaceOnUse">
<stop stop-color="#1A49E9"/>
<stop offset="0.252064" stop-color="#DDB4C2"/>
<stop offset="0.654224" stop-color="#9B8AEA"/>
<stop offset="1" stop-color="#189DC8"/>
</linearGradient>
<linearGradient id="paint6_linear_464_438" x1="55.0014" y1="45.2595" x2="59.5265" y2="45.4056" gradientUnits="userSpaceOnUse">
<stop stop-color="#1A49E9"/>
<stop offset="0.252064" stop-color="#DDB4C2"/>
<stop offset="0.654224" stop-color="#9B8AEA"/>
<stop offset="1" stop-color="#189DC8"/>
</linearGradient>
<linearGradient id="paint7_linear_464_438" x1="58.2594" y1="57.2222" x2="62.7845" y2="57.3683" gradientUnits="userSpaceOnUse">
<stop stop-color="#1A49E9"/>
<stop offset="0.252064" stop-color="#DDB4C2"/>
<stop offset="0.654224" stop-color="#9B8AEA"/>
<stop offset="1" stop-color="#189DC8"/>
</linearGradient>
<linearGradient id="paint8_linear_464_438" x1="70.2265" y1="53.9816" x2="74.7516" y2="54.1278" gradientUnits="userSpaceOnUse">
<stop stop-color="#1A49E9"/>
<stop offset="0.252064" stop-color="#DDB4C2"/>
<stop offset="0.654224" stop-color="#9B8AEA"/>
<stop offset="1" stop-color="#189DC8"/>
</linearGradient>
<linearGradient id="paint9_linear_464_438" x1="70.2141" y1="45.2157" x2="74.7392" y2="45.3617" gradientUnits="userSpaceOnUse">
<stop stop-color="#1A49E9"/>
<stop offset="0.252064" stop-color="#DDB4C2"/>
<stop offset="0.654224" stop-color="#9B8AEA"/>
<stop offset="1" stop-color="#189DC8"/>
</linearGradient>
<linearGradient id="paint10_linear_464_438" x1="71.394" y1="49.5977" x2="75.9176" y2="49.7437" gradientUnits="userSpaceOnUse">
<stop stop-color="#1A49E9"/>
<stop offset="0.252064" stop-color="#DDB4C2"/>
<stop offset="0.654224" stop-color="#9B8AEA"/>
<stop offset="1" stop-color="#189DC8"/>
</linearGradient>
<linearGradient id="paint11_linear_464_438" x1="62.6467" y1="58.3831" x2="67.1703" y2="58.5291" gradientUnits="userSpaceOnUse">
<stop stop-color="#1A49E9"/>
<stop offset="0.252064" stop-color="#DDB4C2"/>
<stop offset="0.654224" stop-color="#9B8AEA"/>
<stop offset="1" stop-color="#189DC8"/>
</linearGradient>
<linearGradient id="paint12_linear_464_438" x1="67.0245" y1="57.1973" x2="71.5496" y2="57.3435" gradientUnits="userSpaceOnUse">
<stop stop-color="#1A49E9"/>
<stop offset="0.252064" stop-color="#DDB4C2"/>
<stop offset="0.654224" stop-color="#9B8AEA"/>
<stop offset="1" stop-color="#189DC8"/>
</linearGradient>
<linearGradient id="paint13_linear_464_438" x1="42.5928" y1="22" x2="93.345" y2="23.5331" gradientUnits="userSpaceOnUse">
<stop stop-color="#1A49E9"/>
<stop offset="0.252064" stop-color="#DDB4C2"/>
<stop offset="0.654224" stop-color="#9B8AEA"/>
<stop offset="1" stop-color="#189DC8"/>
</linearGradient>
<linearGradient id="paint14_linear_464_438" x1="59.0133" y1="46.8834" x2="71.8522" y2="47.4368" gradientUnits="userSpaceOnUse">
<stop stop-color="#1A49E9"/>
<stop offset="0.252064" stop-color="#DDB4C2"/>
<stop offset="0.654224" stop-color="#9B8AEA"/>
<stop offset="1" stop-color="#189DC8"/>
</linearGradient>
<linearGradient id="paint15_linear_464_438" x1="39.7892" y1="39.3086" x2="50.5967" y2="40.1464" gradientUnits="userSpaceOnUse">
<stop stop-color="#1A49E9"/>
<stop offset="0.252064" stop-color="#DDB4C2"/>
<stop offset="0.654224" stop-color="#9B8AEA"/>
<stop offset="1" stop-color="#189DC8"/>
</linearGradient>
<linearGradient id="paint16_linear_464_438" x1="38.0697" y1="44.4588" x2="51.1886" y2="45.6967" gradientUnits="userSpaceOnUse">
<stop stop-color="#1A49E9"/>
<stop offset="0.252064" stop-color="#DDB4C2"/>
<stop offset="0.654224" stop-color="#9B8AEA"/>
<stop offset="1" stop-color="#189DC8"/>
</linearGradient>
<linearGradient id="paint17_linear_464_438" x1="35.2883" y1="49.61" x2="52.0984" y2="51.6545" gradientUnits="userSpaceOnUse">
<stop stop-color="#1A49E9"/>
<stop offset="0.252064" stop-color="#DDB4C2"/>
<stop offset="0.654224" stop-color="#9B8AEA"/>
<stop offset="1" stop-color="#189DC8"/>
</linearGradient>
<linearGradient id="paint18_linear_464_438" x1="33.0185" y1="54.7604" x2="52.7879" y2="57.6045" gradientUnits="userSpaceOnUse">
<stop stop-color="#1A49E9"/>
<stop offset="0.252064" stop-color="#DDB4C2"/>
<stop offset="0.654224" stop-color="#9B8AEA"/>
<stop offset="1" stop-color="#189DC8"/>
</linearGradient>
<linearGradient id="paint19_linear_464_438" x1="30.7892" y1="59.9118" x2="53.4106" y2="63.6603" gradientUnits="userSpaceOnUse">
<stop stop-color="#1A49E9"/>
<stop offset="0.252064" stop-color="#DDB4C2"/>
<stop offset="0.654224" stop-color="#9B8AEA"/>
<stop offset="1" stop-color="#189DC8"/>
</linearGradient>
</defs>
</svg>
