<svg width="113" height="101" viewBox="0 0 113 101" fill="none" xmlns="http://www.w3.org/2000/svg">
<path d="M28.0191 8.77048L4.37028 85.7705C2.19814 92.8429 7.48702 100 14.8855 100H78.6374C83.6415 100 88.0151 96.6224 89.2801 91.7808L109.399 14.7808C111.221 7.81037 105.961 1 98.7566 1H38.5343C33.7032 1 29.4375 4.15224 28.0191 8.77048Z" fill="#100B25" stroke="url(#paint0_linear_464_434)" stroke-width="0.5"/>
<path d="M61.9306 55.5049C61.8252 55.4771 59.3283 54.8516 57.4116 56.3491C56.7153 56.909 56.1875 57.6507 55.8866 58.492C55.5855 57.6508 55.0576 56.9092 54.3613 56.3494C52.4441 54.8522 49.9482 55.4778 49.8423 55.5052C49.7511 55.5289 49.6679 55.5765 49.6014 55.6432C49.5348 55.7098 49.4872 55.793 49.4636 55.8841C49.4362 55.9893 48.8101 58.4852 50.3078 60.4029C51.259 61.6202 52.8243 62.2975 54.9606 62.4291V66.0742C54.9606 66.3197 55.0581 66.5552 55.2318 66.7289C55.4054 66.9025 55.6409 67 55.8864 67C56.1319 67 56.3674 66.9025 56.5411 66.7289C56.7147 66.5552 56.8122 66.3197 56.8122 66.0742V62.4291C58.9488 62.2972 60.5143 61.6197 61.4651 60.4027C62.9628 58.4849 62.3366 55.989 62.3093 55.8836C62.2856 55.7925 62.238 55.7094 62.1714 55.6428C62.1048 55.5762 62.0217 55.5286 61.9306 55.5049Z" fill="url(#paint1_linear_464_434)"/>
<path d="M56.1212 35C54.3172 35 52.5537 35.5349 51.0537 36.5372C49.5538 37.5394 48.3847 38.9639 47.6943 40.6306C47.004 42.2973 46.8233 44.1312 47.1753 45.9005C47.5272 47.6699 48.3959 49.2951 49.6715 50.5707C50.9471 51.8464 52.5723 52.7151 54.3417 53.067C56.111 53.419 57.945 53.2383 59.6116 52.548C61.2783 51.8576 62.7028 50.6885 63.7051 49.1886C64.7073 47.6886 65.2423 45.9251 65.2423 44.1211C65.2423 41.7021 64.2813 39.3821 62.5708 37.6715C60.8602 35.961 58.5403 35 56.1212 35ZM55.4555 43.5188H56.7626C57.3447 43.524 57.9012 43.7586 58.3112 44.1719C58.7211 44.5851 58.9514 45.1434 58.952 45.7255C58.9525 46.3076 58.7233 46.8664 58.3141 47.2804C57.9049 47.6944 57.3488 47.9301 56.7667 47.9363V49.0245C56.769 49.1197 56.7523 49.2144 56.7175 49.3031C56.6826 49.3917 56.6304 49.4725 56.5639 49.5407C56.4973 49.6089 56.4178 49.663 56.3301 49.7C56.2423 49.737 56.148 49.7561 56.0527 49.7561C55.9575 49.7561 55.8632 49.737 55.7754 49.7C55.6876 49.663 55.6081 49.6089 55.5416 49.5407C55.4751 49.4725 55.4229 49.3917 55.388 49.3031C55.3532 49.2144 55.3364 49.1197 55.3387 49.0245V47.937H53.8488C53.6593 47.937 53.4777 47.8618 53.3438 47.7278C53.2098 47.5939 53.1346 47.4122 53.1346 47.2228C53.1346 47.0334 53.2098 46.8518 53.3438 46.7178C53.4777 46.5839 53.6593 46.5086 53.8488 46.5086H56.7626C56.8656 46.5095 56.9678 46.4899 57.0633 46.4511C57.1587 46.4122 57.2455 46.3549 57.3187 46.2823C57.3918 46.2097 57.4499 46.1234 57.4895 46.0283C57.5292 45.9332 57.5496 45.8312 57.5496 45.7281C57.5496 45.6251 57.5292 45.523 57.4895 45.4279C57.4499 45.3328 57.3918 45.2465 57.3187 45.1739C57.2455 45.1014 57.1587 45.044 57.0633 45.0052C56.9678 44.9663 56.8656 44.9468 56.7626 44.9476H55.4555C54.8503 44.9489 54.2687 44.7134 53.835 44.2914C53.4012 43.8694 53.1498 43.2944 53.1346 42.6895C53.1193 42.0845 53.3414 41.4976 53.7533 41.0542C54.1652 40.6109 54.7343 40.3464 55.3387 40.3172V39.2176C55.3364 39.1224 55.3532 39.0276 55.388 38.939C55.4229 38.8503 55.4751 38.7695 55.5416 38.7014C55.6081 38.6332 55.6876 38.579 55.7754 38.542C55.8632 38.5051 55.9575 38.486 56.0527 38.486C56.148 38.486 56.2423 38.5051 56.3301 38.542C56.4178 38.579 56.4973 38.6332 56.5639 38.7014C56.6304 38.7695 56.6826 38.8503 56.7175 38.939C56.7523 39.0276 56.769 39.1224 56.7667 39.2176V40.3051H58.3936C58.583 40.3051 58.7647 40.3803 58.8986 40.5143C59.0326 40.6482 59.1078 40.8299 59.1078 41.0193C59.1078 41.2087 59.0326 41.3904 58.8986 41.5243C58.7647 41.6582 58.583 41.7335 58.3936 41.7335H55.4555C55.3377 41.7326 55.2209 41.755 55.1118 41.7994C55.0027 41.8439 54.9035 41.9095 54.8199 41.9925C54.7363 42.0755 54.6699 42.1742 54.6246 42.2829C54.5793 42.3917 54.556 42.5083 54.556 42.6261C54.556 42.7439 54.5793 42.8605 54.6246 42.9693C54.6699 43.078 54.7363 43.1767 54.8199 43.2597C54.9035 43.3427 55.0027 43.4083 55.1118 43.4528C55.2209 43.4972 55.3377 43.5197 55.4555 43.5188Z" fill="url(#paint2_linear_464_434)"/>
<defs>
<linearGradient id="paint0_linear_464_434" x1="65.0001" y1="-17.5" x2="115.186" y2="68.9165" gradientUnits="userSpaceOnUse">
<stop stop-color="#020212"/>
<stop offset="0.415687" stop-color="#DDB4C2"/>
<stop offset="0.612975" stop-color="#9B8AEA"/>
<stop offset="1" stop-color="#020212"/>
</linearGradient>
<linearGradient id="paint1_linear_464_434" x1="46.2284" y1="50.6199" x2="68.5115" y2="51.4321" gradientUnits="userSpaceOnUse">
<stop stop-color="#1A49E9"/>
<stop offset="0.252064" stop-color="#DDB4C2"/>
<stop offset="0.654224" stop-color="#9B8AEA"/>
<stop offset="1" stop-color="#189DC8"/>
</linearGradient>
<linearGradient id="paint2_linear_464_434" x1="42.7245" y1="27.5891" x2="73.6422" y2="28.5872" gradientUnits="userSpaceOnUse">
<stop stop-color="#1A49E9"/>
<stop offset="0.252064" stop-color="#DDB4C2"/>
<stop offset="0.654224" stop-color="#9B8AEA"/>
<stop offset="1" stop-color="#189DC8"/>
</linearGradient>
</defs>
</svg>
