<svg width="113" height="101" viewBox="0 0 113 101" fill="none" xmlns="http://www.w3.org/2000/svg">
<path d="M28.0191 8.77048L4.37028 85.7705C2.19814 92.8429 7.48702 100 14.8855 100H78.6374C83.6415 100 88.0151 96.6224 89.2801 91.7808L109.399 14.7808C111.221 7.81037 105.961 1 98.7566 1H38.5343C33.7032 1 29.4375 4.15224 28.0191 8.77048Z" fill="#100B25" stroke="url(#paint0_linear_464_436)" stroke-width="0.5"/>
<path d="M44.788 63.5882L42.6602 65.7162L43.4125 66.4685L45.5404 64.3405L44.788 63.5882Z" fill="url(#paint1_linear_464_436)"/>
<path d="M48.5114 63.5874L45.8516 66.2474L46.6039 66.9998L49.2637 64.3397L48.5114 63.5874Z" fill="url(#paint2_linear_464_436)"/>
<path d="M41.5959 63.5876L40 65.1836L40.7524 65.9359L42.3483 64.3399L41.5959 63.5876Z" fill="url(#paint3_linear_464_436)"/>
<path d="M45.9724 41.0958L46.9557 40.6893L46.1884 38.7709L45.2005 39.1661L45.9724 41.0958Z" fill="url(#paint4_linear_464_436)"/>
<path d="M43.8608 39.5498L41.7324 40.6211L42.2108 41.5714L44.3392 40.5001L43.8608 39.5498Z" fill="url(#paint5_linear_464_436)"/>
<path d="M49.7113 36.8973L47.584 37.9609L48.0598 38.9126L50.1871 37.8489L49.7113 36.8973Z" fill="url(#paint6_linear_464_436)"/>
<path d="M44.5763 35.0002L43.6237 35.474L44.6862 37.6105L45.6389 37.1367L44.5763 35.0002Z" fill="url(#paint7_linear_464_436)"/>
<path d="M42.2102 36.8895L41.7344 37.8412L43.8623 38.9051L44.3381 37.9535L42.2102 36.8895Z" fill="url(#paint8_linear_464_436)"/>
<path d="M46.7755 35.1078L46.2435 37.2357L47.2756 37.4938L47.8077 35.3659L46.7755 35.1078Z" fill="url(#paint9_linear_464_436)"/>
<path d="M65.2144 41.2495L64.4655 42.0052L66.0686 43.5939L66.8175 42.8382L65.2144 41.2495Z" fill="url(#paint10_linear_464_436)"/>
<path d="M70.4646 44.9029L69.8698 45.7852L71.4566 46.855L72.0514 45.9728L70.4646 44.9029Z" fill="url(#paint11_linear_464_436)"/>
<path d="M70.2431 39.7516L68.6471 42.4115L69.5595 42.9589L71.1555 40.299L70.2431 39.7516Z" fill="url(#paint12_linear_464_436)"/>
<path d="M67.4911 39.8956L66.459 40.1537L66.991 42.2816L68.0231 42.0236L67.4911 39.8956Z" fill="url(#paint13_linear_464_436)"/>
<path d="M72.2935 43.2173L70.1569 43.224L70.1602 44.288L72.2968 44.2813L72.2935 43.2173Z" fill="url(#paint14_linear_464_436)"/>
<path d="M63.5768 47.0435C65.4075 47.2983 67.1327 48.0524 68.563 49.2231V47.3155L64.9366 45.9557L63.5768 47.0435Z" fill="url(#paint15_linear_464_436)"/>
<path d="M59.5218 52.7961C59.5218 47.811 55.4661 43.7552 50.481 43.7552C45.4958 43.7552 41.4401 47.811 41.4401 52.7961C41.4401 57.7813 45.4958 61.837 50.481 61.837C55.4661 61.837 59.5218 57.7812 59.5218 52.7961ZM43.0275 49.9469L44.0212 50.327C43.8386 50.8048 43.7099 51.3015 43.6374 51.8078L42.5842 51.6572C42.6679 51.0724 42.8165 50.4987 43.0275 49.9469ZM50.481 60.7737C48.3659 60.7713 46.3382 59.9301 44.8426 58.4345C43.3471 56.9389 42.5058 54.9112 42.5034 52.7962H43.5674C43.5694 54.6291 44.2985 56.3864 45.5946 57.6825C46.8907 58.9786 48.648 59.7077 50.481 59.7097V60.7737ZM53.0843 55.7496L52.1322 56.2245L51.3997 54.756L50.1985 55.3933L49.6998 54.4535L50.9246 53.8035L50.3893 52.7304L49.095 53.2851L48.6759 52.3071L49.6745 51.8792L46.4948 50.0674L47.0215 49.143L50.1376 50.9185L51.0285 47.349L52.0608 47.6067L51.1526 51.2457L52.3987 50.7117L52.8178 51.6896L51.3689 52.3106L51.8648 53.3047L53.3391 52.5224L53.8379 53.4622L52.3399 54.2571L53.0843 55.7496Z" fill="url(#paint16_linear_464_436)"/>
<path d="M68.5626 50.6694V50.6535C67.4077 49.5006 65.9624 48.6817 64.3799 48.2836C62.7974 47.8855 61.1367 47.923 59.5738 48.3921C60.1633 49.6082 60.5028 50.9301 60.5722 52.2797C60.6416 53.6292 60.4395 54.979 59.9778 56.2491C59.5162 57.5192 58.8044 58.6837 57.8846 59.6737C56.9648 60.6638 55.8558 61.4592 54.623 62.0129C55.4481 63.2639 56.5702 64.2912 57.8889 65.003C59.2077 65.7148 60.6822 66.089 62.1808 66.0922C67.166 66.0922 71.2217 62.0364 71.2217 57.0513C71.2225 55.866 70.9894 54.6921 70.5358 53.597C70.0823 52.5019 69.4171 51.5071 68.5785 50.6694H68.5626ZM62.1248 61.012L61.1732 60.5362L61.4317 60.0191C61.2342 59.9414 61.055 59.8234 60.9056 59.6727C60.7561 59.5219 60.6397 59.3417 60.5637 59.1435C60.4877 58.9453 60.4538 58.7334 60.4642 58.5214C60.4746 58.3094 60.5289 58.1019 60.6239 57.912L60.6417 57.8765L61.5928 58.3534L61.5752 58.3883C61.5455 58.448 61.5289 58.5133 61.5266 58.5799C61.5243 58.6465 61.5364 58.7128 61.5619 58.7744C61.5874 58.8359 61.6259 58.8913 61.6747 58.9367C61.7235 58.9821 61.7814 59.0165 61.8447 59.0376L63.0523 59.4401C63.165 59.4775 63.2876 59.4706 63.3953 59.4206C63.503 59.3707 63.5875 59.2815 63.6317 59.1714L63.9398 58.4012C63.9651 58.338 63.9772 58.2703 63.9753 58.2022C63.9735 58.1342 63.9578 58.0673 63.9291 58.0055C63.9005 57.9438 63.8596 57.8885 63.8088 57.8432C63.758 57.7979 63.6986 57.7634 63.634 57.7419L62.5185 57.37C62.3164 57.3026 62.1302 57.1947 61.9713 57.0527C61.8124 56.9108 61.6843 56.7379 61.5946 56.5446C61.505 56.3514 61.4558 56.1418 61.4501 55.9289C61.4444 55.7159 61.4822 55.5041 61.5613 55.3063L61.8695 54.536C62.0146 54.174 62.2924 53.8811 62.6462 53.717C63 53.5529 63.4031 53.53 63.7732 53.6531L64.0387 53.7416L64.3642 53.0906L65.3158 53.5664L65.0573 54.0834C65.2548 54.1611 65.434 54.2791 65.5834 54.4299C65.7328 54.5806 65.8492 54.7609 65.9252 54.9591C66.0012 55.1573 66.0351 55.3691 66.0248 55.5811C66.0144 55.7931 65.96 56.0007 65.8651 56.1905L65.8474 56.2259L64.8961 55.7494L64.9137 55.7144C64.9434 55.6547 64.96 55.5894 64.9623 55.5228C64.9647 55.4561 64.9526 55.3898 64.9271 55.3282C64.9016 55.2666 64.8631 55.2113 64.8143 55.1659C64.7655 55.1204 64.7075 55.086 64.6443 55.0649L63.4367 54.6624C63.3241 54.625 63.2014 54.6319 63.0937 54.6819C62.9861 54.7318 62.9015 54.8209 62.8573 54.9311L62.5492 55.7014C62.5239 55.7646 62.5118 55.8323 62.5136 55.9003C62.5155 55.9683 62.5312 56.0353 62.5598 56.097C62.5884 56.1587 62.6294 56.214 62.6801 56.2593C62.7309 56.3047 62.7904 56.3391 62.8549 56.3607L63.9705 56.7325C64.1726 56.7999 64.3588 56.9078 64.5177 57.0498C64.6766 57.1917 64.8047 57.3646 64.8944 57.5579C64.984 57.7511 65.0332 57.9607 65.0389 58.1736C65.0446 58.3866 65.0068 58.5985 64.9276 58.7963L64.6196 59.5665C64.4748 59.9288 64.197 60.222 63.8431 60.3861C63.4892 60.5503 63.0859 60.5729 62.7159 60.4495L62.4503 60.361L62.1248 61.012ZM70.1584 57.0513C70.156 59.1663 69.3147 61.194 67.8192 62.6896C66.3236 64.1852 64.2959 65.0264 62.1808 65.0288V63.9648C64.0138 63.9628 65.7711 63.2337 67.0672 61.9376C68.3633 60.6415 69.0923 58.8842 69.0944 57.0513H70.1584Z" fill="url(#paint17_linear_464_436)"/>
<path d="M45.1628 44.2079C46.5965 43.3156 48.2323 42.7995 49.9185 42.7074L48.711 41.1979L45.1628 42.5284V44.2079Z" fill="url(#paint18_linear_464_436)"/>
<path d="M54.4168 38.8345C54.9655 39.2723 55.8481 39.8014 56.9505 39.8514C57.8493 39.8922 58.7255 39.612 59.5656 39.0172C59.649 39.4053 59.8223 39.7684 60.0717 40.0772C60.4441 40.5314 60.9673 40.8352 61.6338 40.9857C61.5317 41.1414 61.4416 41.3047 61.3643 41.4742C61.0084 42.2574 60.782 43.5208 61.7249 45.0925L62.6373 44.545C62.08 43.6162 61.972 42.7437 62.3164 41.9518C62.479 41.5811 62.7237 41.2521 63.032 40.9897L64.3088 40.0322H62.7129C61.8529 40.0322 61.2428 39.8224 60.8994 39.4086C60.4265 38.8387 60.5744 38.0146 60.5754 38.0094L60.92 36.2865L59.6776 37.5289C58.8037 38.4027 57.9058 38.8264 57.0075 38.7889C55.6125 38.7302 54.6211 37.5748 54.6124 37.5645L53.9417 36.7597L53.6876 37.776C53.2662 39.4616 51.6119 39.4996 51.5417 39.5003L51.5446 40.5643C52.2928 40.5643 53.7042 40.1815 54.4168 38.8345Z" fill="url(#paint19_linear_464_436)"/>
<path d="M55.2671 40.5638H54.2031V41.6275H55.2671V40.5638Z" fill="url(#paint20_linear_464_436)"/>
<path d="M58.4634 41.0209C58.451 41.1076 58.1772 43.1628 59.6775 44.6632L60.4299 43.9109C59.3128 42.7938 59.5148 41.1854 59.517 41.1693L58.4634 41.0209Z" fill="url(#paint21_linear_464_436)"/>
<path d="M67.7401 46.1607L69.0189 44.0293L68.1066 43.4818L66.8359 45.5996L67.7401 46.1607Z" fill="url(#paint22_linear_464_436)"/>
<defs>
<linearGradient id="paint0_linear_464_436" x1="65.0001" y1="-17.5" x2="115.186" y2="68.9165" gradientUnits="userSpaceOnUse">
<stop stop-color="#020212"/>
<stop offset="0.415687" stop-color="#DDB4C2"/>
<stop offset="0.612975" stop-color="#9B8AEA"/>
<stop offset="1" stop-color="#020212"/>
</linearGradient>
<linearGradient id="paint1_linear_464_436" x1="41.8558" y1="65.9093" x2="45.763" y2="62.6557" gradientUnits="userSpaceOnUse">
<stop stop-color="#1A49E9"/>
<stop offset="0.252064" stop-color="#DDB4C2"/>
<stop offset="0.654224" stop-color="#9B8AEA"/>
<stop offset="1" stop-color="#189DC8"/>
</linearGradient>
<linearGradient id="paint2_linear_464_436" x1="44.9225" y1="66.5652" x2="49.8856" y2="62.6187" gradientUnits="userSpaceOnUse">
<stop stop-color="#1A49E9"/>
<stop offset="0.252064" stop-color="#DDB4C2"/>
<stop offset="0.654224" stop-color="#9B8AEA"/>
<stop offset="1" stop-color="#189DC8"/>
</linearGradient>
<linearGradient id="paint3_linear_464_436" x1="39.3203" y1="65.252" x2="42.1998" y2="62.7414" gradientUnits="userSpaceOnUse">
<stop stop-color="#1A49E9"/>
<stop offset="0.252064" stop-color="#DDB4C2"/>
<stop offset="0.654224" stop-color="#9B8AEA"/>
<stop offset="1" stop-color="#189DC8"/>
</linearGradient>
<linearGradient id="paint4_linear_464_436" x1="44.7892" y1="37.8264" x2="47.7653" y2="37.8989" gradientUnits="userSpaceOnUse">
<stop stop-color="#1A49E9"/>
<stop offset="0.252064" stop-color="#DDB4C2"/>
<stop offset="0.654224" stop-color="#9B8AEA"/>
<stop offset="1" stop-color="#189DC8"/>
</linearGradient>
<linearGradient id="paint5_linear_464_436" x1="41.0393" y1="40.4861" x2="44.7623" y2="38.9377" gradientUnits="userSpaceOnUse">
<stop stop-color="#1A49E9"/>
<stop offset="0.252064" stop-color="#DDB4C2"/>
<stop offset="0.654224" stop-color="#9B8AEA"/>
<stop offset="1" stop-color="#189DC8"/>
</linearGradient>
<linearGradient id="paint6_linear_464_436" x1="46.8921" y1="37.8236" x2="50.6122" y2="36.2875" gradientUnits="userSpaceOnUse">
<stop stop-color="#1A49E9"/>
<stop offset="0.252064" stop-color="#DDB4C2"/>
<stop offset="0.654224" stop-color="#9B8AEA"/>
<stop offset="1" stop-color="#189DC8"/>
</linearGradient>
<linearGradient id="paint7_linear_464_436" x1="42.9688" y1="34.7171" x2="44.5963" y2="33.9367" gradientUnits="userSpaceOnUse">
<stop stop-color="#1A49E9"/>
<stop offset="0.252064" stop-color="#DDB4C2"/>
<stop offset="0.654224" stop-color="#9B8AEA"/>
<stop offset="1" stop-color="#189DC8"/>
</linearGradient>
<linearGradient id="paint8_linear_464_436" x1="40.7584" y1="37.632" x2="41.5888" y2="36.0294" gradientUnits="userSpaceOnUse">
<stop stop-color="#1A49E9"/>
<stop offset="0.252064" stop-color="#DDB4C2"/>
<stop offset="0.654224" stop-color="#9B8AEA"/>
<stop offset="1" stop-color="#189DC8"/>
</linearGradient>
<linearGradient id="paint9_linear_464_436" x1="45.6995" y1="37.6296" x2="46.8374" y2="34.0951" gradientUnits="userSpaceOnUse">
<stop stop-color="#1A49E9"/>
<stop offset="0.252064" stop-color="#DDB4C2"/>
<stop offset="0.654224" stop-color="#9B8AEA"/>
<stop offset="1" stop-color="#189DC8"/>
</linearGradient>
<linearGradient id="paint10_linear_464_436" x1="63.6387" y1="41.537" x2="64.9285" y2="40.2745" gradientUnits="userSpaceOnUse">
<stop stop-color="#1A49E9"/>
<stop offset="0.252064" stop-color="#DDB4C2"/>
<stop offset="0.654224" stop-color="#9B8AEA"/>
<stop offset="1" stop-color="#189DC8"/>
</linearGradient>
<linearGradient id="paint11_linear_464_436" x1="69.0857" y1="45.5573" x2="70.1214" y2="44.0791" gradientUnits="userSpaceOnUse">
<stop stop-color="#1A49E9"/>
<stop offset="0.252064" stop-color="#DDB4C2"/>
<stop offset="0.654224" stop-color="#9B8AEA"/>
<stop offset="1" stop-color="#189DC8"/>
</linearGradient>
<linearGradient id="paint12_linear_464_436" x1="67.9024" y1="42.8125" x2="71.0073" y2="38.5919" gradientUnits="userSpaceOnUse">
<stop stop-color="#1A49E9"/>
<stop offset="0.252064" stop-color="#DDB4C2"/>
<stop offset="0.654224" stop-color="#9B8AEA"/>
<stop offset="1" stop-color="#189DC8"/>
</linearGradient>
<linearGradient id="paint13_linear_464_436" x1="66.001" y1="39.3497" x2="67.7585" y2="38.9394" gradientUnits="userSpaceOnUse">
<stop stop-color="#1A49E9"/>
<stop offset="0.252064" stop-color="#DDB4C2"/>
<stop offset="0.654224" stop-color="#9B8AEA"/>
<stop offset="1" stop-color="#189DC8"/>
</linearGradient>
<linearGradient id="paint14_linear_464_436" x1="69.6548" y1="42.7933" x2="73.2653" y2="43.0161" gradientUnits="userSpaceOnUse">
<stop stop-color="#1A49E9"/>
<stop offset="0.252064" stop-color="#DDB4C2"/>
<stop offset="0.654224" stop-color="#9B8AEA"/>
<stop offset="1" stop-color="#189DC8"/>
</linearGradient>
<linearGradient id="paint15_linear_464_436" x1="62.4082" y1="44.6283" x2="70.8473" y2="45.0441" gradientUnits="userSpaceOnUse">
<stop stop-color="#1A49E9"/>
<stop offset="0.252064" stop-color="#DDB4C2"/>
<stop offset="0.654224" stop-color="#9B8AEA"/>
<stop offset="1" stop-color="#189DC8"/>
</linearGradient>
<linearGradient id="paint16_linear_464_436" x1="37.2022" y1="36.4095" x2="67.8478" y2="37.3989" gradientUnits="userSpaceOnUse">
<stop stop-color="#1A49E9"/>
<stop offset="0.252064" stop-color="#DDB4C2"/>
<stop offset="0.654224" stop-color="#9B8AEA"/>
<stop offset="1" stop-color="#189DC8"/>
</linearGradient>
<linearGradient id="paint17_linear_464_436" x1="50.7328" y1="40.6646" x2="78.8694" y2="41.4985" gradientUnits="userSpaceOnUse">
<stop stop-color="#1A49E9"/>
<stop offset="0.252064" stop-color="#DDB4C2"/>
<stop offset="0.654224" stop-color="#9B8AEA"/>
<stop offset="1" stop-color="#189DC8"/>
</linearGradient>
<linearGradient id="paint18_linear_464_436" x1="44.0481" y1="39.975" x2="52.0959" y2="40.3855" gradientUnits="userSpaceOnUse">
<stop stop-color="#1A49E9"/>
<stop offset="0.252064" stop-color="#DDB4C2"/>
<stop offset="0.654224" stop-color="#9B8AEA"/>
<stop offset="1" stop-color="#189DC8"/>
</linearGradient>
<linearGradient id="paint19_linear_464_436" x1="48.5494" y1="32.7091" x2="70.1628" y2="33.7207" gradientUnits="userSpaceOnUse">
<stop stop-color="#1A49E9"/>
<stop offset="0.252064" stop-color="#DDB4C2"/>
<stop offset="0.654224" stop-color="#9B8AEA"/>
<stop offset="1" stop-color="#189DC8"/>
</linearGradient>
<linearGradient id="paint20_linear_464_436" x1="53.9538" y1="40.1317" x2="55.757" y2="40.19" gradientUnits="userSpaceOnUse">
<stop stop-color="#1A49E9"/>
<stop offset="0.252064" stop-color="#DDB4C2"/>
<stop offset="0.654224" stop-color="#9B8AEA"/>
<stop offset="1" stop-color="#189DC8"/>
</linearGradient>
<linearGradient id="paint21_linear_464_436" x1="57.9689" y1="39.5412" x2="61.3504" y2="39.6009" gradientUnits="userSpaceOnUse">
<stop stop-color="#1A49E9"/>
<stop offset="0.252064" stop-color="#DDB4C2"/>
<stop offset="0.654224" stop-color="#9B8AEA"/>
<stop offset="1" stop-color="#189DC8"/>
</linearGradient>
<linearGradient id="paint22_linear_464_436" x1="66.3243" y1="42.3935" x2="70.0254" y2="42.4909" gradientUnits="userSpaceOnUse">
<stop stop-color="#1A49E9"/>
<stop offset="0.252064" stop-color="#DDB4C2"/>
<stop offset="0.654224" stop-color="#9B8AEA"/>
<stop offset="1" stop-color="#189DC8"/>
</linearGradient>
</defs>
</svg>
