<svg width="113" height="101" viewBox="0 0 113 101" fill="none" xmlns="http://www.w3.org/2000/svg">
<path d="M28.0191 8.77048L4.37028 85.7705C2.19814 92.8429 7.48702 100 14.8855 100H78.6374C83.6415 100 88.0151 96.6224 89.2801 91.7808L109.399 14.7808C111.221 7.81037 105.961 1 98.7566 1H38.5343C33.7032 1 29.4375 4.15224 28.0191 8.77048Z" fill="#100B25" stroke="url(#paint0_linear_464_437)" stroke-width="0.5"/>
<path d="M68.9216 56.1115C68.9216 55.0581 70.5231 55.0581 70.5231 56.1115V63.3385C70.5231 63.781 70.1645 64.1393 69.7223 64.1393H67.971V66.1992C67.971 66.6413 67.6123 67 67.1702 67H45.3529C44.9108 67 44.5521 66.6413 44.5521 66.1992V64.1393H42.8008C42.3587 64.1393 42 63.781 42 63.3385V56.1115C42 55.0581 43.6015 55.0581 43.6015 56.1115V59.8611H46.0919V53.9312C46.0919 53.4891 46.4506 53.1305 46.8927 53.1305H49.34C49.7821 53.1305 50.1408 53.4891 50.1408 53.9312V59.8611H51.5218V50.184C51.5218 49.7415 51.8805 49.3832 52.3226 49.3832H54.7703C55.2124 49.3832 55.571 49.7415 55.571 50.184V59.8611H56.9521V53.9312C56.9521 53.4891 57.3107 53.1305 57.7528 53.1305H60.2002C60.6423 53.1305 61.0009 53.4891 61.0009 53.9312V59.8611H62.3824V46.3599C62.3824 45.9178 62.741 45.5591 63.1831 45.5591H65.6304C66.0725 45.5591 66.4312 45.9178 66.4312 46.3599V59.8611H68.9216V56.1115ZM66.3695 64.1393H46.1536V65.3981H66.3695V64.1393ZM46.1564 50.6739C45.1029 50.6739 45.1029 49.0719 46.1564 49.0719H48.0661L48.8975 45.9683C48.9934 45.6108 49.3167 45.3748 49.6703 45.3748L56.2487 45.374C56.628 45.374 56.9455 45.6379 57.0285 45.9916L58.0176 49.0719H58.8447L59.3097 42.6926C59.3396 42.2711 59.6909 41.9489 60.1074 41.9493L65.599 41.9482C66.6524 41.9482 66.6524 43.5497 65.599 43.5497H60.8511L60.3888 49.8894C60.3799 50.3241 60.0247 50.6739 59.588 50.6739L57.4361 50.6715C57.0984 50.6715 56.7844 50.4557 56.6757 50.1169L55.6673 46.9755H50.2836L49.463 50.0381C49.387 50.401 49.0648 50.6739 48.6794 50.6739H46.1564ZM45.868 35.7901C45.868 34.7366 47.4695 34.7366 47.4695 35.7901V36.0773H48.8641C49.9172 36.0773 49.9172 37.6788 48.8641 37.6788H47.4695V39.3797H47.7757C49.1261 39.3797 50.2277 40.4813 50.2277 41.8313C50.2277 43.1798 49.1234 44.2833 47.7757 44.2833H47.4695V44.5709C47.4695 45.624 45.868 45.624 45.868 44.5709V44.2833H44.4737C43.4203 44.2833 43.4203 42.6818 44.4737 42.6818H45.868V40.9813H45.5617C44.214 40.9813 43.1097 39.8773 43.1097 38.5293C43.1097 37.1816 44.2136 36.0773 45.5617 36.0773H45.868V35.7901ZM47.4695 40.9813V42.6818H47.7757C48.2446 42.6818 48.6262 42.2998 48.6262 41.8313C48.6262 41.3655 48.2419 40.9813 47.7757 40.9813H47.4695ZM45.868 39.3797V37.6788H45.5617C45.0936 37.6788 44.7116 38.062 44.7116 38.5293C44.7116 38.9974 45.0932 39.3797 45.5617 39.3797H45.868ZM63.9839 59.8611H64.8297V47.1607H63.9839V59.8611ZM58.5536 59.8611H59.3994V54.7324H58.5536V59.8611ZM53.1237 59.8611H53.9695V50.9848H53.1237V59.8611ZM47.6934 59.8611H48.5392V54.7324H47.6934V59.8611ZM43.6015 61.4626V62.5378C52.0415 62.5378 60.4816 62.5378 68.9216 62.5378V61.4626C60.4816 61.4626 52.0415 61.4626 43.6015 61.4626Z" fill="url(#paint1_linear_464_437)"/>
<defs>
<linearGradient id="paint0_linear_464_437" x1="65.0001" y1="-17.5" x2="115.186" y2="68.9165" gradientUnits="userSpaceOnUse">
<stop stop-color="#020212"/>
<stop offset="0.415687" stop-color="#DDB4C2"/>
<stop offset="0.612975" stop-color="#9B8AEA"/>
<stop offset="1" stop-color="#020212"/>
</linearGradient>
<linearGradient id="paint1_linear_464_437" x1="35.315" y1="22" x2="83.6673" y2="23.3914" gradientUnits="userSpaceOnUse">
<stop stop-color="#1A49E9"/>
<stop offset="0.252064" stop-color="#DDB4C2"/>
<stop offset="0.654224" stop-color="#9B8AEA"/>
<stop offset="1" stop-color="#189DC8"/>
</linearGradient>
</defs>
</svg>
