<svg width="32" height="32" viewBox="0 0 32 32" fill="none" xmlns="http://www.w3.org/2000/svg">
<path d="M6.40043 0C6.08968 0.0058457 5.86711 0.235709 5.86711 0.531251V1.59792C5.86711 1.95337 6.13385 2.13185 6.40043 2.1323C6.66701 2.13185 6.93375 1.95336 6.93375 1.59792V0.531251C6.93375 0.235709 6.71117 0.00578523 6.40043 0ZM3.13384 1.75626L3.89007 2.50834C4.41628 2.9977 5.13287 2.26038 4.6463 1.75626L3.89007 1C3.78967 0.896777 3.66012 0.844811 3.51612 0.844792C3.034 0.841166 2.80102 1.4261 3.13384 1.75626ZM8.91079 1.00001L8.15455 1.75626C7.66799 2.26038 8.38457 2.99771 8.91079 2.50835L9.66702 1.75626C9.99985 1.42611 9.76686 0.841071 9.28474 0.844796C9.14073 0.844802 9.01119 0.89678 8.91079 1.00001ZM24.7833 3.79585L24.6198 7.51983L23.335 4.95258C23.0834 4.48879 22.6919 4.18823 22.2605 4.05096C21.8291 3.91369 21.3588 3.94098 20.9491 4.10305C20.7755 4.17171 20.6216 4.26832 20.4793 4.37805C19.7019 3.34058 18.4662 2.66554 17.0679 2.66554C15.5656 2.66776 14.1371 3.47482 13.3763 4.79889H3.20155C3.06025 4.79798 2.92408 4.85381 2.82343 4.95305L1.22554 6.53535C1.01512 6.74274 1.0131 7.08204 1.22151 7.2916L2.8194 8.90932C3.02831 9.12133 3.37088 9.12133 3.57979 8.90932L4.26833 8.21661L4.97352 8.91349C5.18417 9.12069 5.52243 9.11774 5.72871 8.90623L6.40682 8.22497L7.09118 8.90935C7.2992 9.11609 7.63522 9.11609 7.84325 8.90935L8.53177 8.21665L9.22551 8.90936C9.32456 9.00908 9.45891 9.06653 9.59945 9.0677H13.3754C13.5394 9.33984 13.7254 9.57724 13.9212 9.79687C13.2639 10.1241 12.7994 10.8363 12.7994 11.7365V14.9375C12.7994 16.9386 11.7964 18.9329 11.7421 21.3386C11.7205 21.3382 11.6991 21.3331 11.6775 21.3354C11.4966 21.3543 11.3383 21.4634 11.2567 21.626L6.45786 31.2281C6.28095 31.5824 6.53788 31.9994 6.93389 32H22.4023C22.6225 31.9991 22.8193 31.8629 22.8981 31.6573L25.5637 24.725C25.6809 24.4168 25.4932 24.0773 25.1699 24.0125L24.722 23.923C24.9959 23.5996 25.4258 23.1613 25.9449 22.6771C26.6832 21.9886 27.5907 21.1849 28.473 20.3354C29.3553 19.486 30.2158 18.5908 30.8708 17.6896C31.5251 16.7894 31.9988 15.8569 32 14.9396C32.0119 13.7566 31.6886 11.5757 31.3667 9.62184C31.0445 7.66659 30.7167 5.98018 30.7167 5.98018C30.541 5.0651 29.9675 4.47713 29.2125 4.31142C28.9237 4.24801 28.6222 4.25724 28.3334 4.32715L28.2959 3.77194C28.2945 3.75079 28.2915 3.73025 28.2876 3.70943C28.0879 2.6547 27.2894 2.07128 26.4022 2.13857C25.5686 2.20179 24.8269 2.84659 24.7833 3.79585ZM27.2364 3.9021L27.7322 11.2407C27.7819 11.9522 28.8486 11.8772 28.7989 11.1657L28.4082 5.42814C28.5815 5.34516 28.782 5.30978 28.9843 5.35419C29.24 5.41031 29.5594 5.60674 29.6697 6.18127C29.6697 6.18127 29.9919 7.857 30.3113 9.79588C30.6308 11.7347 30.9432 13.9765 30.9332 14.9334C30.9332 15.4946 30.5989 16.2509 30.0082 17.0636C29.4175 17.8763 28.5932 18.7389 27.7322 19.5678C26.8713 20.3967 25.975 21.1947 25.2208 21.898C24.4863 22.583 23.8995 23.1445 23.5698 23.6918L12.7992 21.5355C12.7992 19.2115 13.8669 17.2243 13.8669 14.9376V11.7365C13.8669 11.0873 14.2402 10.76 14.5638 10.6855C14.8247 10.6253 15.2637 10.6937 15.4982 11.3839C16.2459 13.3343 16.972 15.2737 17.6263 17.2365C17.8281 17.9522 18.9034 17.597 18.6387 16.9021C18.585 16.7409 18.5246 16.5827 18.47 16.4219C18.5872 16.3567 19.6133 15.7819 20.6543 14.949C21.2051 14.5083 21.7453 14.0099 22.1345 13.4573C22.5229 12.9058 22.7922 12.2414 22.5678 11.5708L20.8668 6.2604C20.6795 5.54993 21.0237 5.21938 21.3387 5.09477C21.6811 4.95931 22.1561 5.01573 22.3939 5.45311L26.1969 13.0531C26.5555 13.6742 26.6698 14.4771 26.6698 14.4771C26.7669 15.1831 27.8263 15.0373 27.7292 14.3313C27.7292 14.3313 27.6085 13.3933 27.1386 12.5552L25.6022 9.48541L25.8511 3.84267C25.8703 3.42574 26.2008 3.22252 26.4844 3.20103C26.7288 3.18251 27.1161 3.28318 27.2364 3.9021ZM20.1866 7.64065C19.8629 9.07119 18.5827 10.1344 17.0679 10.1344C15.832 10.133 14.7112 9.4198 14.1815 8.30316C14.0924 8.1169 13.9036 7.99883 13.6971 8.00003H9.8191L8.90975 7.09066C8.70172 6.88392 8.3657 6.88392 8.15768 7.09066L7.46915 7.78337L6.77646 7.09066C6.56799 6.8813 6.2287 6.8813 6.02023 7.09066L5.34316 7.77607L4.64214 7.08649C4.43303 6.88084 4.09701 6.88283 3.89007 7.09072L3.2057 7.77615L2.35469 6.91781L3.41821 5.86676H13.6971C13.9036 5.86799 14.0924 5.74991 14.1815 5.56364C14.711 4.44728 15.8324 3.73416 17.0679 3.73234C18.2418 3.73231 19.2735 4.3721 19.8303 5.32503C19.7258 5.68516 19.7168 6.09637 19.8392 6.55367L20.1866 7.64065ZM17.0679 5.33336C16.1781 5.33336 15.4669 6.05602 15.4669 6.93337C15.4669 7.81071 16.1739 8.53337 17.0679 8.53337C17.9619 8.53337 18.6668 7.81071 18.6668 6.93337C18.6668 6.05602 17.9577 5.33336 17.0679 5.33336ZM21.5532 11.9021C21.6273 12.1196 21.5558 12.4293 21.2647 12.8428C20.9735 13.2562 20.4944 13.7142 19.9887 14.1188C19.1527 14.7876 18.3961 15.2306 18.1095 15.3949C17.6111 13.978 17.093 12.5693 16.5564 11.1709C16.7244 11.1896 16.8949 11.2009 17.0679 11.2011C18.5922 11.2011 19.9268 10.3899 20.6813 9.1813L21.5532 11.9021ZM4.80047 10.1355C4.56048 10.1344 4.3495 10.2939 4.28485 10.5251C3.83527 12.1727 2.74641 13.4183 1.4193 13.899C0.948596 14.0681 0.948596 14.7351 1.4193 14.9042C2.74695 15.3831 3.83788 16.6269 4.28902 18.274C4.43415 18.7943 5.17205 18.7943 5.31712 18.274C5.7667 16.6264 6.85556 15.3807 8.18268 14.9001C8.65341 14.731 8.65341 14.064 8.18268 13.8949C6.85504 13.416 5.76405 12.1722 5.31295 10.5251C5.24865 10.2953 5.03906 10.1363 4.80047 10.1355ZM7.99518 17.6032C7.75665 17.6043 7.5469 17.763 7.4827 17.9928C7.19874 18.9959 6.5146 19.7468 5.68794 20.0355C5.2173 20.2046 5.2173 20.8705 5.68794 21.0397C6.51497 21.3273 7.20196 22.0807 7.48686 23.0834C7.63684 23.5944 8.36089 23.5944 8.5108 23.0834C8.79475 22.0804 9.47885 21.3283 10.3055 21.0397C10.7837 20.8738 10.7837 20.1972 10.3055 20.0314C9.47852 19.7438 8.7957 18.9956 8.5108 17.9928C8.44629 17.7616 8.23521 17.6023 7.99518 17.6032ZM2.93281 20.2678C2.68995 20.2672 2.47696 20.4318 2.4151 20.6668C2.08462 21.9356 1.28706 22.8799 0.344312 23.2376C-0.117277 23.4147 -0.112258 24.0584 0.344312 24.2335C1.28738 24.5898 2.08764 25.5327 2.41927 26.8012C2.55896 27.3311 3.31071 27.3311 3.4505 26.8012C3.78099 25.5324 4.58271 24.587 5.52545 24.2293C5.98134 24.0525 5.97835 23.4067 5.5192 23.2334C4.57613 22.8771 3.78004 21.9352 3.44842 20.6668C3.38691 20.4331 3.17631 20.2688 2.93489 20.2678H2.93281Z" fill="url(#paint0_linear_435_979)"/>
<defs>
<linearGradient id="paint0_linear_435_979" x1="-7.5" y1="-13" x2="46.7353" y2="-11.2491" gradientUnits="userSpaceOnUse">
<stop stop-color="#1A49E9"/>
<stop offset="0.252064" stop-color="#DDB4C2"/>
<stop offset="0.654224" stop-color="#9B8AEA"/>
<stop offset="1" stop-color="#189DC8"/>
</linearGradient>
</defs>
</svg>
