<svg width="46" height="32" viewBox="0 0 46 32" fill="none" xmlns="http://www.w3.org/2000/svg">
<g id="Group 1000001663">
<g id="_16-Deadline">
<g id="g2395">
<path id="path2393" d="M34.298 10.5841C34.5088 10.706 34.7384 10.7638 34.9652 10.7638C35.4261 10.7638 35.8745 10.5245 36.1218 10.0966C36.2428 9.88751 36.3006 9.65886 36.3015 9.43289C36.3024 8.97114 36.0631 8.52096 35.6343 8.27363C34.9964 7.90442 34.1805 8.12239 33.8113 8.76029C33.6903 8.97025 33.6325 9.1989 33.6316 9.42399C33.6307 9.88662 33.87 10.3359 34.298 10.5841Z" fill="url(#paint0_linear_435_1013)"/>
</g>
<g id="g2399">
<path id="path2397" d="M22.329 20.2922C21.9037 20.5404 21.6671 20.9879 21.668 21.447C21.668 21.6748 21.7267 21.9061 21.8504 22.1178C22.0986 22.5422 22.5452 22.7788 23.0034 22.7788C23.232 22.7788 23.4642 22.7201 23.6751 22.5965C24.1004 22.3482 24.337 21.9016 24.337 21.4417C24.337 21.2139 24.2783 20.9826 24.1546 20.7717C23.7827 20.1347 22.966 19.9203 22.329 20.2922Z" fill="url(#paint1_linear_435_1013)"/>
</g>
<g id="g2403">
<path id="path2401" d="M26.1591 10.7886C26.3886 10.7886 26.6208 10.7299 26.8325 10.6054C27.2569 10.3563 27.4936 9.90875 27.4927 9.44968C27.4918 9.22192 27.4331 8.99061 27.3094 8.77886C26.9366 8.14363 26.119 7.93011 25.4829 8.30288C25.0585 8.5511 24.8219 8.99861 24.8228 9.45769C24.8236 9.68633 24.8824 9.91765 25.006 10.1285C25.2543 10.5529 25.7009 10.7886 26.1591 10.7886Z" fill="url(#paint2_linear_435_1013)"/>
</g>
<g id="g2407">
<path id="path2405" d="M21.8157 18.4017C22.5497 18.3981 23.1431 17.8029 23.1449 17.0698V17.0618C23.1413 16.3243 22.5417 15.7291 21.805 15.7326C21.0701 15.7362 20.4776 16.3314 20.4758 17.0645V17.0725C20.4785 17.8082 21.0755 18.4017 21.8103 18.4017H21.8157Z" fill="url(#paint3_linear_435_1013)"/>
</g>
<g id="g2411">
<path id="path2409" d="M30.5835 9.59024C31.3202 9.59024 31.9181 8.99238 31.9181 8.25572C31.9181 7.51907 31.3202 6.9212 30.5835 6.9212C29.846 6.9212 29.249 7.51907 29.249 8.25572C29.249 8.99326 29.846 9.59024 30.5835 9.59024Z" fill="url(#paint4_linear_435_1013)"/>
</g>
<g id="g2415">
<path id="path2413" d="M22.3015 13.8368C22.5105 13.9569 22.7383 14.0138 22.9634 14.0138C23.426 14.0138 23.8762 13.7727 24.1226 13.3421C24.2427 13.1321 24.2997 12.9035 24.2997 12.6775C24.2988 12.2158 24.0577 11.7674 23.628 11.5209C22.9883 11.1544 22.1725 11.3759 21.8068 12.0156C21.6858 12.2256 21.6298 12.4542 21.6298 12.6802C21.6307 13.1419 21.8718 13.5912 22.3015 13.8368Z" fill="url(#paint5_linear_435_1013)"/>
</g>
<g id="g2419">
<path id="path2417" d="M26.8877 23.4845C26.248 23.1171 25.4322 23.3377 25.0656 23.9774C24.9446 24.1865 24.8877 24.4151 24.8877 24.6411C24.8877 25.1029 25.1288 25.5522 25.5576 25.7995V25.7986C25.7676 25.9196 25.9962 25.9765 26.2213 25.9765C26.684 25.9765 27.1332 25.7363 27.3797 25.3066C27.5007 25.0966 27.5576 24.868 27.5576 24.6429C27.5576 24.1803 27.3165 23.731 26.8877 23.4845Z" fill="url(#paint6_linear_435_1013)"/>
</g>
<g id="g2423">
<path id="path2421" d="M38.8566 20.2443C38.2178 19.8769 37.402 20.0957 37.0337 20.7345C36.9127 20.9436 36.8557 21.1722 36.8549 21.3982C36.8549 21.86 37.0942 22.3092 37.5239 22.5566C37.7339 22.6776 37.9625 22.7354 38.1885 22.7354C38.6502 22.7354 39.0986 22.4961 39.346 22.0673C39.467 21.8573 39.5239 21.6286 39.5248 21.4036C39.5248 20.9409 39.2855 20.4916 38.8566 20.2443Z" fill="url(#paint7_linear_435_1013)"/>
</g>
<g id="g2427">
<path id="path2425" d="M38.1787 13.9702C38.4065 13.9702 38.636 13.9123 38.8469 13.7896C39.273 13.5422 39.5114 13.0965 39.5123 12.6365C39.5123 12.4088 39.4545 12.1775 39.3317 11.9657C38.9616 11.3278 38.1449 11.1107 37.5079 11.4808C37.0817 11.7282 36.8433 12.1748 36.8424 12.6339C36.8424 12.8616 36.9002 13.0929 37.023 13.3047C37.2703 13.7317 37.7187 13.9702 38.1787 13.9702Z" fill="url(#paint8_linear_435_1013)"/>
</g>
<g id="g2431">
<path id="path2429" d="M39.3548 15.6819C38.6173 15.6828 38.0212 16.2807 38.0221 17.0182C38.023 17.754 38.6208 18.351 39.3566 18.351H39.3584C40.0959 18.3492 40.692 17.7513 40.6911 17.0138C40.6902 16.2771 40.0915 15.6802 39.3548 15.6819Z" fill="url(#paint9_linear_435_1013)"/>
</g>
<g id="g2435">
<path id="path2433" d="M30.6049 24.4675C29.8682 24.4693 29.2721 25.0689 29.2748 25.8055C29.2766 26.5413 29.8735 27.1365 30.6084 27.1365H30.6129C31.3495 27.1347 31.9456 26.5351 31.9438 25.7984C31.9412 25.0609 31.3424 24.4657 30.6049 24.4675Z" fill="url(#paint10_linear_435_1013)"/>
</g>
<g id="g2439">
<path id="path2437" d="M34.3165 23.463C33.8913 23.7103 33.6537 24.1569 33.6528 24.6169C33.6528 24.8447 33.7116 25.076 33.8343 25.2877C34.0825 25.713 34.5301 25.9505 34.9891 25.9505C35.2169 25.9505 35.4482 25.8927 35.6591 25.7699C36.0843 25.5217 36.3228 25.0751 36.3228 24.616C36.3228 24.3874 36.264 24.156 36.1413 23.9452C35.7703 23.3082 34.9535 23.092 34.3165 23.463Z" fill="url(#paint11_linear_435_1013)"/>
</g>
<g id="g2443">
<path id="path2441" d="M30.5835 29.331C23.8003 29.331 18.2818 23.8125 18.2818 17.0294C18.2818 10.2463 23.8003 4.7278 30.5835 4.7278C37.3666 4.7278 42.8851 10.2463 42.8851 17.0294C42.8851 23.8125 37.3666 29.331 30.5835 29.331ZM40.8265 6.12228L41.5418 5.40698L42.6942 6.55929C42.9547 6.81996 43.2962 6.95021 43.6378 6.95021C43.9793 6.95021 44.3208 6.81996 44.5813 6.55929C45.1025 6.03812 45.1025 5.19319 44.5813 4.67201L42.4875 2.57816C42.4868 2.57744 42.4862 2.57664 42.4854 2.57593C42.4847 2.57522 42.4839 2.5746 42.4832 2.57388L40.3002 0.39088C39.7791 -0.130293 38.9341 -0.130293 38.4129 0.39088C37.8919 0.912054 37.8919 1.75698 38.4129 2.27816L39.6545 3.5197L38.7112 4.46303C36.369 2.94292 33.5777 2.05876 30.5835 2.05876C27.5893 2.05876 24.7979 2.94292 22.4558 4.46312L21.5124 3.5197L22.7539 2.27816C23.2751 1.75698 23.2751 0.912054 22.7539 0.39088C22.2328 -0.130293 21.3878 -0.130293 20.8666 0.39088L18.6839 2.57371C18.6831 2.57451 18.6822 2.57513 18.6814 2.57593C18.6806 2.57673 18.68 2.57762 18.6792 2.57842L16.5856 4.67201C16.0644 5.19319 16.0644 6.0382 16.5856 6.55929C16.8461 6.81996 17.1876 6.95021 17.5292 6.95021C17.8707 6.95021 18.2123 6.81996 18.4728 6.55929L19.6251 5.40707L20.3404 6.12237C17.4323 8.85501 15.6128 12.7335 15.6128 17.0294C15.6128 25.2842 22.3286 32 30.5835 32C38.8384 32 45.5541 25.2842 45.5541 17.0294C45.5541 12.7334 43.7346 8.85501 40.8265 6.12228Z" fill="url(#paint12_linear_435_1013)"/>
</g>
<g id="g2447">
<path id="path2445" d="M30.9741 19.4773L33.9832 16.4684C34.5045 15.9473 34.5045 15.1023 33.9833 14.5811C33.4622 14.0598 32.6172 14.0598 32.0961 14.581L30.0305 16.6464L29.0708 15.6869C28.5496 15.1658 27.7046 15.1658 27.1835 15.687C26.6624 16.2082 26.6624 17.0531 27.1837 17.5743L29.0869 19.4773C29.3475 19.7378 29.689 19.8681 30.0305 19.8681C30.3719 19.8681 30.7135 19.7378 30.9741 19.4773Z" fill="url(#paint13_linear_435_1013)"/>
</g>
<g id="g2451">
<path id="path2449" d="M12.3675 5.39288H8.62822C7.89121 5.39288 7.2937 5.99039 7.2937 6.7274C7.2937 7.46441 7.89121 8.06192 8.62822 8.06192H12.3675C13.1045 8.06192 13.7021 7.46441 13.7021 6.7274C13.7021 5.99039 13.1045 5.39288 12.3675 5.39288Z" fill="url(#paint14_linear_435_1013)"/>
</g>
<g id="g2455">
<path id="path2453" d="M12.3674 10.5432H7.23515C6.49814 10.5432 5.90063 11.1407 5.90063 11.8777C5.90063 12.6147 6.49814 13.2122 7.23515 13.2122H12.3674C13.1045 13.2122 13.702 12.6147 13.702 11.8777C13.702 11.1407 13.1045 10.5432 12.3674 10.5432Z" fill="url(#paint15_linear_435_1013)"/>
</g>
<g id="g2459">
<path id="path2457" d="M12.3676 15.6943H4.98198C4.24497 15.6943 3.64746 16.2918 3.64746 17.0289C3.64746 17.7659 4.24497 18.3634 4.98198 18.3634H12.3676C13.1046 18.3634 13.7021 17.7659 13.7021 17.0289C13.7021 16.2918 13.1046 15.6943 12.3676 15.6943Z" fill="url(#paint16_linear_435_1013)"/>
</g>
<g id="g2463">
<path id="path2461" d="M12.3676 20.8447H3.14311C2.4061 20.8447 1.80859 21.4422 1.80859 22.1792C1.80859 22.9163 2.4061 23.5138 3.14311 23.5138H12.3676C13.1046 23.5138 13.7021 22.9163 13.7021 22.1792C13.7021 21.4422 13.1046 20.8447 12.3676 20.8447Z" fill="url(#paint17_linear_435_1013)"/>
</g>
<g id="g2467">
<path id="path2465" d="M12.3675 25.9961H1.33708C0.600071 25.9961 0.00256348 26.5936 0.00256348 27.3306C0.00256348 28.0676 0.600071 28.6651 1.33708 28.6651H12.3675C13.1045 28.6651 13.702 28.0676 13.702 27.3306C13.702 26.5936 13.1045 25.9961 12.3675 25.9961Z" fill="url(#paint18_linear_435_1013)"/>
</g>
</g>
</g>
<defs>
<linearGradient id="paint0_linear_435_1013" x1="33.0058" y1="7.00928" x2="37.5309" y2="7.15537" gradientUnits="userSpaceOnUse">
<stop stop-color="#1A49E9"/>
<stop offset="0.252064" stop-color="#DDB4C2"/>
<stop offset="0.654224" stop-color="#9B8AEA"/>
<stop offset="1" stop-color="#189DC8"/>
</linearGradient>
<linearGradient id="paint1_linear_435_1013" x1="21.0424" y1="19.0253" x2="25.566" y2="19.1714" gradientUnits="userSpaceOnUse">
<stop stop-color="#1A49E9"/>
<stop offset="0.252064" stop-color="#DDB4C2"/>
<stop offset="0.654224" stop-color="#9B8AEA"/>
<stop offset="1" stop-color="#189DC8"/>
</linearGradient>
<linearGradient id="paint2_linear_435_1013" x1="24.197" y1="7.03508" x2="28.7221" y2="7.18121" gradientUnits="userSpaceOnUse">
<stop stop-color="#1A49E9"/>
<stop offset="0.252064" stop-color="#DDB4C2"/>
<stop offset="0.654224" stop-color="#9B8AEA"/>
<stop offset="1" stop-color="#189DC8"/>
</linearGradient>
<linearGradient id="paint3_linear_435_1013" x1="19.8503" y1="14.6483" x2="24.3739" y2="14.7943" gradientUnits="userSpaceOnUse">
<stop stop-color="#1A49E9"/>
<stop offset="0.252064" stop-color="#DDB4C2"/>
<stop offset="0.654224" stop-color="#9B8AEA"/>
<stop offset="1" stop-color="#189DC8"/>
</linearGradient>
<linearGradient id="paint4_linear_435_1013" x1="28.6235" y1="5.83691" x2="33.1471" y2="5.98295" gradientUnits="userSpaceOnUse">
<stop stop-color="#1A49E9"/>
<stop offset="0.252064" stop-color="#DDB4C2"/>
<stop offset="0.654224" stop-color="#9B8AEA"/>
<stop offset="1" stop-color="#189DC8"/>
</linearGradient>
<linearGradient id="paint5_linear_435_1013" x1="21.004" y1="10.2595" x2="25.5291" y2="10.4056" gradientUnits="userSpaceOnUse">
<stop stop-color="#1A49E9"/>
<stop offset="0.252064" stop-color="#DDB4C2"/>
<stop offset="0.654224" stop-color="#9B8AEA"/>
<stop offset="1" stop-color="#189DC8"/>
</linearGradient>
<linearGradient id="paint6_linear_435_1013" x1="24.2619" y1="22.2223" x2="28.787" y2="22.3684" gradientUnits="userSpaceOnUse">
<stop stop-color="#1A49E9"/>
<stop offset="0.252064" stop-color="#DDB4C2"/>
<stop offset="0.654224" stop-color="#9B8AEA"/>
<stop offset="1" stop-color="#189DC8"/>
</linearGradient>
<linearGradient id="paint7_linear_435_1013" x1="36.2291" y1="18.9817" x2="40.7542" y2="19.1278" gradientUnits="userSpaceOnUse">
<stop stop-color="#1A49E9"/>
<stop offset="0.252064" stop-color="#DDB4C2"/>
<stop offset="0.654224" stop-color="#9B8AEA"/>
<stop offset="1" stop-color="#189DC8"/>
</linearGradient>
<linearGradient id="paint8_linear_435_1013" x1="36.2166" y1="10.2157" x2="40.7417" y2="10.3617" gradientUnits="userSpaceOnUse">
<stop stop-color="#1A49E9"/>
<stop offset="0.252064" stop-color="#DDB4C2"/>
<stop offset="0.654224" stop-color="#9B8AEA"/>
<stop offset="1" stop-color="#189DC8"/>
</linearGradient>
<linearGradient id="paint9_linear_435_1013" x1="37.3965" y1="14.5976" x2="41.9201" y2="14.7437" gradientUnits="userSpaceOnUse">
<stop stop-color="#1A49E9"/>
<stop offset="0.252064" stop-color="#DDB4C2"/>
<stop offset="0.654224" stop-color="#9B8AEA"/>
<stop offset="1" stop-color="#189DC8"/>
</linearGradient>
<linearGradient id="paint10_linear_435_1013" x1="28.6492" y1="23.3832" x2="33.1728" y2="23.5292" gradientUnits="userSpaceOnUse">
<stop stop-color="#1A49E9"/>
<stop offset="0.252064" stop-color="#DDB4C2"/>
<stop offset="0.654224" stop-color="#9B8AEA"/>
<stop offset="1" stop-color="#189DC8"/>
</linearGradient>
<linearGradient id="paint11_linear_435_1013" x1="33.0271" y1="22.1973" x2="37.5522" y2="22.3434" gradientUnits="userSpaceOnUse">
<stop stop-color="#1A49E9"/>
<stop offset="0.252064" stop-color="#DDB4C2"/>
<stop offset="0.654224" stop-color="#9B8AEA"/>
<stop offset="1" stop-color="#189DC8"/>
</linearGradient>
<linearGradient id="paint12_linear_435_1013" x1="8.59536" y1="-13" x2="59.3476" y2="-11.4669" gradientUnits="userSpaceOnUse">
<stop stop-color="#1A49E9"/>
<stop offset="0.252064" stop-color="#DDB4C2"/>
<stop offset="0.654224" stop-color="#9B8AEA"/>
<stop offset="1" stop-color="#189DC8"/>
</linearGradient>
<linearGradient id="paint13_linear_435_1013" x1="25.0158" y1="11.8834" x2="37.8547" y2="12.4369" gradientUnits="userSpaceOnUse">
<stop stop-color="#1A49E9"/>
<stop offset="0.252064" stop-color="#DDB4C2"/>
<stop offset="0.654224" stop-color="#9B8AEA"/>
<stop offset="1" stop-color="#189DC8"/>
</linearGradient>
<linearGradient id="paint14_linear_435_1013" x1="5.79176" y1="4.30859" x2="16.5993" y2="5.14632" gradientUnits="userSpaceOnUse">
<stop stop-color="#1A49E9"/>
<stop offset="0.252064" stop-color="#DDB4C2"/>
<stop offset="0.654224" stop-color="#9B8AEA"/>
<stop offset="1" stop-color="#189DC8"/>
</linearGradient>
<linearGradient id="paint15_linear_435_1013" x1="4.07222" y1="9.45885" x2="17.1911" y2="10.6968" gradientUnits="userSpaceOnUse">
<stop stop-color="#1A49E9"/>
<stop offset="0.252064" stop-color="#DDB4C2"/>
<stop offset="0.654224" stop-color="#9B8AEA"/>
<stop offset="1" stop-color="#189DC8"/>
</linearGradient>
<linearGradient id="paint16_linear_435_1013" x1="1.29093" y1="14.61" x2="18.101" y2="16.6545" gradientUnits="userSpaceOnUse">
<stop stop-color="#1A49E9"/>
<stop offset="0.252064" stop-color="#DDB4C2"/>
<stop offset="0.654224" stop-color="#9B8AEA"/>
<stop offset="1" stop-color="#189DC8"/>
</linearGradient>
<linearGradient id="paint17_linear_435_1013" x1="-0.978917" y1="19.7604" x2="18.7905" y2="22.6045" gradientUnits="userSpaceOnUse">
<stop stop-color="#1A49E9"/>
<stop offset="0.252064" stop-color="#DDB4C2"/>
<stop offset="0.654224" stop-color="#9B8AEA"/>
<stop offset="1" stop-color="#189DC8"/>
</linearGradient>
<linearGradient id="paint18_linear_435_1013" x1="-3.20821" y1="24.9118" x2="19.4132" y2="28.6603" gradientUnits="userSpaceOnUse">
<stop stop-color="#1A49E9"/>
<stop offset="0.252064" stop-color="#DDB4C2"/>
<stop offset="0.654224" stop-color="#9B8AEA"/>
<stop offset="1" stop-color="#189DC8"/>
</linearGradient>
</defs>
</svg>
