<svg width="33" height="32" viewBox="0 0 33 32" fill="none" xmlns="http://www.w3.org/2000/svg">
<path d="M5.03057 28.5885L2.90271 30.7166L3.65511 31.4689L5.78297 29.3408L5.03057 28.5885Z" fill="url(#paint0_linear_435_989)"/>
<path d="M8.75407 28.5877L6.09424 31.2478L6.84663 32.0001L9.50646 29.3401L8.75407 28.5877Z" fill="url(#paint1_linear_435_989)"/>
<path d="M1.83845 28.588L0.242554 30.184L0.994949 30.9364L2.59085 29.3403L1.83845 28.588Z" fill="url(#paint2_linear_435_989)"/>
<path d="M6.21496 6.0958L7.19835 5.68929L6.43095 3.77087L5.44312 4.16608L6.21496 6.0958Z" fill="url(#paint3_linear_435_989)"/>
<path d="M4.10343 4.5498L1.97498 5.62115L2.45332 6.57149L4.58178 5.50013L4.10343 4.5498Z" fill="url(#paint4_linear_435_989)"/>
<path d="M9.95403 1.89731L7.82666 2.961L8.30249 3.91266L10.4299 2.84897L9.95403 1.89731Z" fill="url(#paint5_linear_435_989)"/>
<path d="M4.81888 0.000142442L3.86621 0.473938L4.92876 2.61043L5.88143 2.13664L4.81888 0.000142442Z" fill="url(#paint6_linear_435_989)"/>
<path d="M2.45276 1.88947L1.97693 2.84113L4.10488 3.9051L4.58071 2.95345L2.45276 1.88947Z" fill="url(#paint7_linear_435_989)"/>
<path d="M7.01826 0.107717L6.48621 2.23566L7.51836 2.49373L8.05041 0.365789L7.01826 0.107717Z" fill="url(#paint8_linear_435_989)"/>
<path d="M25.4573 6.24957L24.7084 7.00531L26.3115 8.59397L27.0604 7.83824L25.4573 6.24957Z" fill="url(#paint9_linear_435_989)"/>
<path d="M30.7076 9.90311L30.1128 10.7853L31.6996 11.8552L32.2944 10.973L30.7076 9.90311Z" fill="url(#paint10_linear_435_989)"/>
<path d="M30.4861 4.75161L28.8901 7.41156L29.8025 7.959L31.3985 5.29906L30.4861 4.75161Z" fill="url(#paint11_linear_435_989)"/>
<path d="M27.7341 4.89565L26.7019 5.15369L27.2339 7.28164L28.2661 7.0236L27.7341 4.89565Z" fill="url(#paint12_linear_435_989)"/>
<path d="M32.5366 8.21737L30.3999 8.22406L30.4032 9.28804L32.5399 9.28135L32.5366 8.21737Z" fill="url(#paint13_linear_435_989)"/>
<path d="M23.8197 12.0437C25.6504 12.2985 27.3756 13.0526 28.806 14.2233V12.3157L25.1795 10.9559L23.8197 12.0437Z" fill="url(#paint14_linear_435_989)"/>
<path d="M19.7646 17.7963C19.7646 12.8111 15.7088 8.75531 10.7236 8.75531C5.73838 8.75531 1.68262 12.8111 1.68262 17.7963C1.68262 22.7815 5.73838 26.8373 10.7236 26.8373C15.7088 26.8373 19.7646 22.7815 19.7646 17.7963ZM3.27001 14.9471L4.26372 15.3272C4.08116 15.805 3.95244 16.3017 3.87992 16.808L2.82673 16.6573C2.9104 16.0725 3.05909 15.4989 3.27001 14.9471ZM10.7236 25.774C8.60855 25.7716 6.58079 24.9304 5.0852 23.4348C3.58961 21.9392 2.74834 19.9114 2.74594 17.7964H3.80992C3.812 19.6293 4.54107 21.3867 5.83719 22.6828C7.13332 23.9789 8.89064 24.708 10.7236 24.71V25.774ZM13.327 20.7499L12.3749 21.2248L11.6423 19.7562L10.4411 20.3936L9.9424 19.4537L11.1673 18.8038L10.632 17.7306L9.33768 18.2853L8.91856 17.3073L9.91712 16.8794L6.73735 15.0675L7.26414 14.1431L10.3803 15.9187L11.2711 12.3492L12.3034 12.6068L11.3952 16.2459L12.6414 15.7118L13.0605 16.6898L11.6116 17.3107L12.1075 18.3049L13.5818 17.5225L14.0806 18.4624L12.5825 19.2573L13.327 20.7499Z" fill="url(#paint15_linear_435_989)"/>
<path d="M28.8056 15.6697V15.6537C27.6507 14.5009 26.2054 13.682 24.6229 13.2839C23.0404 12.8858 21.3796 12.9233 19.8167 13.3924C20.4061 14.6084 20.7456 15.9304 20.815 17.28C20.8844 18.6296 20.6823 19.9794 20.2207 21.2494C19.7591 22.5195 19.0473 23.6841 18.1275 24.6741C17.2077 25.6642 16.0986 26.4596 14.8658 27.0133C15.691 28.2644 16.813 29.2916 18.1318 30.0035C19.4506 30.7153 20.9251 31.0895 22.4237 31.0927C27.409 31.0927 31.4648 27.0369 31.4648 22.0516C31.4655 20.8663 31.2324 19.6925 30.7788 18.5974C30.3253 17.5022 29.6601 16.5073 28.8215 15.6697H28.8056ZM22.3677 26.0124L21.4161 25.5366L21.6746 25.0196C21.4771 24.9418 21.2979 24.8238 21.1485 24.6731C20.999 24.5223 20.8826 24.3421 20.8066 24.1439C20.7306 23.9457 20.6967 23.7338 20.7071 23.5218C20.7174 23.3098 20.7718 23.1022 20.8667 22.9124L20.8845 22.8769L21.8357 23.3538L21.8181 23.3887C21.7884 23.4484 21.7718 23.5137 21.7695 23.5803C21.7672 23.6469 21.7793 23.7132 21.8048 23.7748C21.8303 23.8363 21.8688 23.8917 21.9176 23.9371C21.9664 23.9825 22.0243 24.0169 22.0876 24.038L23.2952 24.4406C23.4079 24.478 23.5306 24.471 23.6382 24.421C23.7459 24.3711 23.8305 24.2819 23.8746 24.1718L24.1827 23.4015C24.208 23.3384 24.2201 23.2707 24.2183 23.2026C24.2164 23.1346 24.2007 23.0677 24.1721 23.0059C24.1434 22.9442 24.1025 22.8889 24.0517 22.8436C24.001 22.7983 23.9415 22.7638 23.8769 22.7422L22.7614 22.3704C22.5593 22.303 22.3731 22.195 22.2142 22.0531C22.0553 21.9112 21.9272 21.7383 21.8375 21.545C21.7479 21.3517 21.6987 21.1422 21.693 20.9292C21.6872 20.7163 21.7251 20.5044 21.8042 20.3066L22.1124 19.5363C22.2575 19.1743 22.5353 18.8814 22.8891 18.7173C23.2429 18.5532 23.646 18.5304 24.0161 18.6534L24.2816 18.7419L24.6071 18.0909L25.5587 18.5668L25.3002 19.0837C25.4977 19.1615 25.6769 19.2795 25.8264 19.4302C25.9758 19.581 26.0922 19.7612 26.1682 19.9594C26.2442 20.1576 26.2781 20.3695 26.2677 20.5815C26.2574 20.7935 26.203 21.001 26.1081 21.1909L26.0903 21.2262L25.1391 20.7497L25.1566 20.7147C25.1864 20.6551 25.203 20.5897 25.2053 20.5231C25.2076 20.4565 25.1956 20.3901 25.17 20.3286C25.1445 20.267 25.106 20.2116 25.0572 20.1662C25.0085 20.1208 24.9505 20.0864 24.8872 20.0653L23.6796 19.6628C23.567 19.6253 23.4443 19.6323 23.3366 19.6822C23.229 19.7321 23.1444 19.8213 23.1002 19.9314L22.7921 20.7018C22.7668 20.7649 22.7547 20.8326 22.7566 20.9007C22.7584 20.9687 22.7741 21.0356 22.8027 21.0974C22.8314 21.1591 22.8723 21.2143 22.923 21.2597C22.9738 21.305 23.0333 21.3395 23.0978 21.361L24.2134 21.7329C24.4155 21.8002 24.6017 21.9082 24.7606 22.0501C24.9195 22.1921 25.0477 22.365 25.1373 22.5582C25.227 22.7515 25.2761 22.9611 25.2819 23.174C25.2876 23.387 25.2497 23.5989 25.1706 23.7967L24.8625 24.5669C24.7177 24.9292 24.4399 25.2224 24.086 25.3865C23.7321 25.5507 23.3289 25.5734 22.9588 25.4499L22.6932 25.3614L22.3677 26.0124ZM30.4014 22.0516C30.399 24.1667 29.5577 26.1945 28.0622 27.6901C26.5666 29.1856 24.5388 30.0269 22.4237 30.0293V28.9653C24.2567 28.9632 26.014 28.2342 27.3101 26.938C28.6063 25.6419 29.3353 23.8846 29.3374 22.0516H30.4014Z" fill="url(#paint16_linear_435_989)"/>
<path d="M5.40527 9.20815C6.83908 8.31583 8.47486 7.79972 10.1611 7.70759L8.95353 6.19806L5.40527 7.52865V9.20815Z" fill="url(#paint17_linear_435_989)"/>
<path d="M14.6596 3.83449C15.2083 4.27229 16.0909 4.80138 17.1933 4.85139C18.0922 4.89217 18.9684 4.61202 19.8085 4.0172C19.8918 4.4053 20.0652 4.76838 20.3146 5.07718C20.687 5.53137 21.2102 5.83517 21.8768 5.9857C21.7746 6.14142 21.6845 6.30472 21.6073 6.47417C21.2513 7.25738 21.0249 8.52089 21.9678 10.0925L22.8802 9.54509C22.3229 8.61625 22.2149 7.74375 22.5593 6.95184C22.7219 6.58108 22.9666 6.2521 23.275 5.98975L24.5518 5.03218H22.9558C22.0959 5.03218 21.4857 4.82239 21.1423 4.40862C20.6694 3.83871 20.8173 3.01456 20.8183 3.00933L21.1629 1.28644L19.9204 2.52884C19.0466 3.40271 18.1487 3.82637 17.2503 3.7889C15.8553 3.7302 14.8639 2.57479 14.8552 2.56443L14.1845 1.75963L13.9304 2.77597C13.509 4.46159 11.8546 4.49954 11.7844 4.50032L11.7873 5.5643C12.5356 5.5643 13.947 5.18145 14.6596 3.83449Z" fill="url(#paint18_linear_435_989)"/>
<path d="M15.5098 5.56384H14.4458V6.6275H15.5098V5.56384Z" fill="url(#paint19_linear_435_989)"/>
<path d="M18.7062 6.02094C18.6938 6.10769 18.4199 8.16292 19.9203 9.66332L20.6727 8.91099C19.5555 7.79386 19.7576 6.18546 19.7598 6.16935L18.7062 6.02094Z" fill="url(#paint20_linear_435_989)"/>
<path d="M27.983 11.1608L29.2619 9.02936L28.3495 8.48187L27.0789 10.5997L27.983 11.1608Z" fill="url(#paint21_linear_435_989)"/>
<defs>
<linearGradient id="paint0_linear_435_989" x1="2.09834" y1="30.9097" x2="6.00557" y2="27.656" gradientUnits="userSpaceOnUse">
<stop stop-color="#1A49E9"/>
<stop offset="0.252064" stop-color="#DDB4C2"/>
<stop offset="0.654224" stop-color="#9B8AEA"/>
<stop offset="1" stop-color="#189DC8"/>
</linearGradient>
<linearGradient id="paint1_linear_435_989" x1="5.16519" y1="31.5656" x2="10.1283" y2="27.619" gradientUnits="userSpaceOnUse">
<stop stop-color="#1A49E9"/>
<stop offset="0.252064" stop-color="#DDB4C2"/>
<stop offset="0.654224" stop-color="#9B8AEA"/>
<stop offset="1" stop-color="#189DC8"/>
</linearGradient>
<linearGradient id="paint2_linear_435_989" x1="-0.437142" y1="30.2525" x2="2.4424" y2="27.7418" gradientUnits="userSpaceOnUse">
<stop stop-color="#1A49E9"/>
<stop offset="0.252064" stop-color="#DDB4C2"/>
<stop offset="0.654224" stop-color="#9B8AEA"/>
<stop offset="1" stop-color="#189DC8"/>
</linearGradient>
<linearGradient id="paint3_linear_435_989" x1="5.03174" y1="2.82637" x2="8.0079" y2="2.89891" gradientUnits="userSpaceOnUse">
<stop stop-color="#1A49E9"/>
<stop offset="0.252064" stop-color="#DDB4C2"/>
<stop offset="0.654224" stop-color="#9B8AEA"/>
<stop offset="1" stop-color="#189DC8"/>
</linearGradient>
<linearGradient id="paint4_linear_435_989" x1="1.28179" y1="5.48618" x2="5.0049" y2="3.93772" gradientUnits="userSpaceOnUse">
<stop stop-color="#1A49E9"/>
<stop offset="0.252064" stop-color="#DDB4C2"/>
<stop offset="0.654224" stop-color="#9B8AEA"/>
<stop offset="1" stop-color="#189DC8"/>
</linearGradient>
<linearGradient id="paint5_linear_435_989" x1="7.13476" y1="2.82369" x2="10.8549" y2="1.28752" gradientUnits="userSpaceOnUse">
<stop stop-color="#1A49E9"/>
<stop offset="0.252064" stop-color="#DDB4C2"/>
<stop offset="0.654224" stop-color="#9B8AEA"/>
<stop offset="1" stop-color="#189DC8"/>
</linearGradient>
<linearGradient id="paint6_linear_435_989" x1="3.21127" y1="-0.282969" x2="4.83881" y2="-1.06338" gradientUnits="userSpaceOnUse">
<stop stop-color="#1A49E9"/>
<stop offset="0.252064" stop-color="#DDB4C2"/>
<stop offset="0.654224" stop-color="#9B8AEA"/>
<stop offset="1" stop-color="#189DC8"/>
</linearGradient>
<linearGradient id="paint7_linear_435_989" x1="1.00092" y1="2.63193" x2="1.83135" y2="1.02933" gradientUnits="userSpaceOnUse">
<stop stop-color="#1A49E9"/>
<stop offset="0.252064" stop-color="#DDB4C2"/>
<stop offset="0.654224" stop-color="#9B8AEA"/>
<stop offset="1" stop-color="#189DC8"/>
</linearGradient>
<linearGradient id="paint8_linear_435_989" x1="5.94219" y1="2.62955" x2="7.08013" y2="-0.904982" gradientUnits="userSpaceOnUse">
<stop stop-color="#1A49E9"/>
<stop offset="0.252064" stop-color="#DDB4C2"/>
<stop offset="0.654224" stop-color="#9B8AEA"/>
<stop offset="1" stop-color="#189DC8"/>
</linearGradient>
<linearGradient id="paint9_linear_435_989" x1="23.8816" y1="6.53704" x2="25.1714" y2="5.27449" gradientUnits="userSpaceOnUse">
<stop stop-color="#1A49E9"/>
<stop offset="0.252064" stop-color="#DDB4C2"/>
<stop offset="0.654224" stop-color="#9B8AEA"/>
<stop offset="1" stop-color="#189DC8"/>
</linearGradient>
<linearGradient id="paint10_linear_435_989" x1="29.3287" y1="10.5575" x2="30.3645" y2="9.07927" gradientUnits="userSpaceOnUse">
<stop stop-color="#1A49E9"/>
<stop offset="0.252064" stop-color="#DDB4C2"/>
<stop offset="0.654224" stop-color="#9B8AEA"/>
<stop offset="1" stop-color="#189DC8"/>
</linearGradient>
<linearGradient id="paint11_linear_435_989" x1="28.1454" y1="7.81258" x2="31.2504" y2="3.59194" gradientUnits="userSpaceOnUse">
<stop stop-color="#1A49E9"/>
<stop offset="0.252064" stop-color="#DDB4C2"/>
<stop offset="0.654224" stop-color="#9B8AEA"/>
<stop offset="1" stop-color="#189DC8"/>
</linearGradient>
<linearGradient id="paint12_linear_435_989" x1="26.2439" y1="4.34968" x2="28.0015" y2="3.93941" gradientUnits="userSpaceOnUse">
<stop stop-color="#1A49E9"/>
<stop offset="0.252064" stop-color="#DDB4C2"/>
<stop offset="0.654224" stop-color="#9B8AEA"/>
<stop offset="1" stop-color="#189DC8"/>
</linearGradient>
<linearGradient id="paint13_linear_435_989" x1="29.8978" y1="7.79339" x2="33.5084" y2="8.01612" gradientUnits="userSpaceOnUse">
<stop stop-color="#1A49E9"/>
<stop offset="0.252064" stop-color="#DDB4C2"/>
<stop offset="0.654224" stop-color="#9B8AEA"/>
<stop offset="1" stop-color="#189DC8"/>
</linearGradient>
<linearGradient id="paint14_linear_435_989" x1="22.6511" y1="9.62847" x2="31.0903" y2="10.0442" gradientUnits="userSpaceOnUse">
<stop stop-color="#1A49E9"/>
<stop offset="0.252064" stop-color="#DDB4C2"/>
<stop offset="0.654224" stop-color="#9B8AEA"/>
<stop offset="1" stop-color="#189DC8"/>
</linearGradient>
<linearGradient id="paint15_linear_435_989" x1="-2.5553" y1="1.40949" x2="28.0907" y2="2.39886" gradientUnits="userSpaceOnUse">
<stop stop-color="#1A49E9"/>
<stop offset="0.252064" stop-color="#DDB4C2"/>
<stop offset="0.654224" stop-color="#9B8AEA"/>
<stop offset="1" stop-color="#189DC8"/>
</linearGradient>
<linearGradient id="paint16_linear_435_989" x1="10.9755" y1="5.66478" x2="39.1126" y2="6.49866" gradientUnits="userSpaceOnUse">
<stop stop-color="#1A49E9"/>
<stop offset="0.252064" stop-color="#DDB4C2"/>
<stop offset="0.654224" stop-color="#9B8AEA"/>
<stop offset="1" stop-color="#189DC8"/>
</linearGradient>
<linearGradient id="paint17_linear_435_989" x1="4.29063" y1="4.97521" x2="12.3385" y2="5.38572" gradientUnits="userSpaceOnUse">
<stop stop-color="#1A49E9"/>
<stop offset="0.252064" stop-color="#DDB4C2"/>
<stop offset="0.654224" stop-color="#9B8AEA"/>
<stop offset="1" stop-color="#189DC8"/>
</linearGradient>
<linearGradient id="paint18_linear_435_989" x1="8.79211" y1="-2.29105" x2="30.4059" y2="-1.27938" gradientUnits="userSpaceOnUse">
<stop stop-color="#1A49E9"/>
<stop offset="0.252064" stop-color="#DDB4C2"/>
<stop offset="0.654224" stop-color="#9B8AEA"/>
<stop offset="1" stop-color="#189DC8"/>
</linearGradient>
<linearGradient id="paint19_linear_435_989" x1="14.1964" y1="5.13173" x2="15.9997" y2="5.18997" gradientUnits="userSpaceOnUse">
<stop stop-color="#1A49E9"/>
<stop offset="0.252064" stop-color="#DDB4C2"/>
<stop offset="0.654224" stop-color="#9B8AEA"/>
<stop offset="1" stop-color="#189DC8"/>
</linearGradient>
<linearGradient id="paint20_linear_435_989" x1="18.2117" y1="4.54121" x2="21.5932" y2="4.60097" gradientUnits="userSpaceOnUse">
<stop stop-color="#1A49E9"/>
<stop offset="0.252064" stop-color="#DDB4C2"/>
<stop offset="0.654224" stop-color="#9B8AEA"/>
<stop offset="1" stop-color="#189DC8"/>
</linearGradient>
<linearGradient id="paint21_linear_435_989" x1="26.5672" y1="7.39357" x2="30.2684" y2="7.49094" gradientUnits="userSpaceOnUse">
<stop stop-color="#1A49E9"/>
<stop offset="0.252064" stop-color="#DDB4C2"/>
<stop offset="0.654224" stop-color="#9B8AEA"/>
<stop offset="1" stop-color="#189DC8"/>
</linearGradient>
</defs>
</svg>
