<svg width="29" height="32" viewBox="0 0 29 32" fill="none" xmlns="http://www.w3.org/2000/svg">
<g id="Group 1000001664">
<g id="Layer_x0020_1">
<path id="Vector" d="M27.4011 21.1115C27.4011 20.0581 29.0026 20.0581 29.0026 21.1115V28.3385C29.0026 28.781 28.6439 29.1393 28.2018 29.1393H26.4505V31.1992C26.4505 31.6413 26.0918 32 25.6497 32H3.83237C3.39026 32 3.0316 31.6413 3.0316 31.1992V29.1393H1.28025C0.838147 29.1393 0.479492 28.781 0.479492 28.3385V21.1115C0.479492 20.0581 2.08102 20.0581 2.08102 21.1115V24.8611H4.57141V18.9312C4.57141 18.4891 4.93007 18.1305 5.37217 18.1305H7.81948C8.26159 18.1305 8.62025 18.4891 8.62025 18.9312V24.8611H10.0013V15.184C10.0013 14.7415 10.36 14.3832 10.8021 14.3832H13.2498C13.6919 14.3832 14.0505 14.7415 14.0505 15.184V24.8611H15.4316V18.9312C15.4316 18.4891 15.7902 18.1305 16.2323 18.1305H18.6796C19.1218 18.1305 19.4804 18.4891 19.4804 18.9312V24.8611H20.8618V11.3599C20.8618 10.9178 21.2205 10.5591 21.6626 10.5591H24.1099C24.552 10.5591 24.9107 10.9178 24.9107 11.3599V24.8611H27.4011V21.1115ZM24.849 29.1393H4.63313V30.3981H24.849V29.1393ZM4.63585 15.6739C3.5824 15.6739 3.5824 14.0719 4.63585 14.0719H6.54556L7.37699 10.9683C7.47286 10.6108 7.7962 10.3748 8.1498 10.3748L14.7282 10.374C15.1075 10.374 15.425 10.6379 15.508 10.9916L16.4971 14.0719H17.3242L17.7892 7.69263C17.8191 7.2711 18.1704 6.94893 18.5869 6.94932L24.0785 6.94815C25.1319 6.94815 25.1319 8.54967 24.0785 8.54967H19.3306L18.8683 14.8894C18.8594 15.3241 18.5042 15.6739 18.0675 15.6739L15.9156 15.6715C15.5779 15.6715 15.2639 15.4557 15.1552 15.1169L14.1468 11.9755H8.76309L7.94253 15.0381C7.86645 15.401 7.54428 15.6739 7.15885 15.6739H4.63585ZM4.34745 0.790088C4.34745 -0.263363 5.94897 -0.263363 5.94897 0.790088V1.07732H7.34361C8.39667 1.07732 8.39667 2.67885 7.34361 2.67885H5.94897V4.37974H6.25522C7.60561 4.37974 8.70719 5.48132 8.70719 6.83132C8.70719 8.17976 7.60289 9.28329 6.25522 9.28329H5.94897V9.57091C5.94897 10.624 4.34745 10.624 4.34745 9.57091V9.28329H2.9532C1.89975 9.28329 1.89975 7.68176 2.9532 7.68176H4.34745V5.98126H4.04119C2.69352 5.98126 1.58922 4.87735 1.58922 3.52929C1.58922 2.18162 2.69313 1.07732 4.04119 1.07732H4.34745V0.790088ZM5.94897 5.98126V7.68176H6.25522C6.72411 7.68176 7.10567 7.29982 7.10567 6.83132C7.10567 6.36553 6.7214 5.98126 6.25522 5.98126H5.94897ZM4.34745 4.37974V2.67885H4.04119C3.57308 2.67885 3.19114 3.06195 3.19114 3.52929C3.19114 3.9974 3.57269 4.37974 4.04119 4.37974H4.34745ZM22.4634 24.8611H23.3092V12.1607H22.4634V24.8611ZM17.0331 24.8611H17.8789V19.7324H17.0331V24.8611ZM11.6032 24.8611H12.449V15.9848H11.6032V24.8611ZM6.17294 24.8611H7.01872V19.7324H6.17294V24.8611ZM2.08102 26.4626V27.5378C10.521 27.5378 18.9611 27.5378 27.4011 27.5378V26.4626C18.9611 26.4626 10.521 26.4626 2.08102 26.4626Z" fill="url(#paint0_linear_435_1053)"/>
</g>
</g>
<defs>
<linearGradient id="paint0_linear_435_1053" x1="-6.20555" y1="-13" x2="42.1468" y2="-11.6086" gradientUnits="userSpaceOnUse">
<stop stop-color="#1A49E9"/>
<stop offset="0.252064" stop-color="#DDB4C2"/>
<stop offset="0.654224" stop-color="#9B8AEA"/>
<stop offset="1" stop-color="#189DC8"/>
</linearGradient>
</defs>
</svg>
