<svg width="32" height="32" viewBox="0 0 32 32" fill="none" xmlns="http://www.w3.org/2000/svg">
<path d="M20.1344 1.74046C19.596 1.18952 18.9529 0.75174 18.2429 0.452854C17.5329 0.153967 16.7704 0 16 0C15.2296 0 14.4671 0.153967 13.7571 0.452854C13.0471 0.75174 12.404 1.18952 11.8656 1.74046L10.6215 3.01651L8.84128 2.9945C8.0707 2.98539 7.30608 3.13043 6.59238 3.4211C5.87867 3.71177 5.2303 4.1422 4.68538 4.68709C4.14046 5.23197 3.71 5.88031 3.41931 6.59397C3.12862 7.30762 2.98357 8.0722 2.99269 8.84273L3.01269 10.6228L1.74057 11.8668C1.18959 12.4052 0.751787 13.0483 0.452882 13.7582C0.153977 14.4682 0 15.2307 0 16.001C0 16.7713 0.153977 17.5338 0.452882 18.2438C0.751787 18.9537 1.18959 19.5968 1.74057 20.1352L3.01469 21.3792L2.99269 23.1593C2.98357 23.9298 3.12862 24.6944 3.41931 25.408C3.71 26.1217 4.14046 26.77 4.68538 27.3149C5.2303 27.8598 5.87867 28.2902 6.59238 28.5809C7.30608 28.8716 8.0707 29.0166 8.84128 29.0075L10.6215 28.9875L11.8656 30.2595C12.404 30.8105 13.0471 31.2483 13.7571 31.5471C14.4671 31.846 15.2296 32 16 32C16.7704 32 17.5329 31.846 18.2429 31.5471C18.9529 31.2483 19.596 30.8105 20.1344 30.2595L21.3785 28.9855L23.1587 29.0075C23.9293 29.0166 24.6939 28.8716 25.4076 28.5809C26.1213 28.2902 26.7697 27.8598 27.3146 27.3149C27.8595 26.77 28.29 26.1217 28.5807 25.408C28.8714 24.6944 29.0164 23.9298 29.0073 23.1593L28.9873 21.3792L30.2594 20.1352C30.8104 19.5968 31.2482 18.9537 31.5471 18.2438C31.846 17.5338 32 16.7713 32 16.001C32 15.2307 31.846 14.4682 31.5471 13.7582C31.2482 13.0483 30.8104 12.4052 30.2594 11.8668L28.9853 10.6228L29.0073 8.84273C29.0164 8.0722 28.8714 7.30762 28.5807 6.59397C28.29 5.88031 27.8595 5.23197 27.3146 4.68709C26.7697 4.1422 26.1213 3.71177 25.4076 3.4211C24.6939 3.13043 23.9293 2.98539 23.1587 2.9945L21.3785 3.01451L20.1344 1.74046ZM20.7085 13.7089L14.7079 19.7091C14.615 19.8023 14.5046 19.8762 14.3831 19.9266C14.2616 19.977 14.1313 20.0029 13.9998 20.0029C13.8683 20.0029 13.738 19.977 13.6165 19.9266C13.495 19.8762 13.3846 19.8023 13.2917 19.7091L10.2914 16.709C10.1984 16.616 10.1247 16.5057 10.0744 16.3842C10.024 16.2627 9.99813 16.1325 9.99813 16.001C9.99813 15.8695 10.024 15.7393 10.0744 15.6178C10.1247 15.4963 10.1984 15.386 10.2914 15.293C10.3844 15.2 10.4948 15.1262 10.6163 15.0759C10.7378 15.0256 10.868 14.9997 10.9995 14.9997C11.131 14.9997 11.2612 15.0256 11.3827 15.0759C11.5042 15.1262 11.6146 15.2 11.7076 15.293L13.9998 17.5871L19.2923 12.2929C19.4801 12.1051 19.7348 11.9996 20.0004 11.9996C20.266 11.9996 20.5207 12.1051 20.7085 12.2929C20.8963 12.4806 21.0018 12.7353 21.0018 13.0009C21.0018 13.2664 20.8963 13.5211 20.7085 13.7089Z" fill="white"/>
</svg>
