<svg width="19" height="32" viewBox="0 0 19 32" fill="none" xmlns="http://www.w3.org/2000/svg">
<path d="M14.9308 20.5049C14.8254 20.477 12.3285 19.8516 10.4118 21.3491C9.71547 21.909 9.18766 22.6506 8.88677 23.4919C8.58568 22.6507 8.0578 21.9092 7.3615 21.3493C5.44427 19.8521 2.94837 20.4777 2.84246 20.5051C2.75131 20.5288 2.66815 20.5765 2.60157 20.6431C2.53499 20.7097 2.48742 20.7929 2.46378 20.8841C2.43643 20.9892 1.81026 23.4851 3.30796 25.4029C4.25917 26.6202 5.82454 27.2974 7.96079 27.4291V31.0741C7.96079 31.3197 8.05833 31.5552 8.23196 31.7288C8.40558 31.9024 8.64107 32 8.88661 32C9.13215 32 9.36764 31.9024 9.54126 31.7288C9.71488 31.5552 9.81242 31.3197 9.81242 31.0741V27.4291C11.949 27.2971 13.5145 26.6196 14.4653 25.4026C15.963 23.4848 15.3368 20.9889 15.3095 20.8836C15.2858 20.7924 15.2382 20.7093 15.1716 20.6427C15.105 20.5762 15.0219 20.5286 14.9308 20.5049Z" fill="url(#paint0_linear_435_985)"/>
<path d="M9.12144 1.53496e-10C7.31745 -1.04632e-05 5.55396 0.534926 4.05399 1.53716C2.55402 2.5394 1.38493 3.96392 0.694569 5.63059C0.0042035 7.29726 -0.176433 9.13122 0.175502 10.9005C0.527437 12.6699 1.39614 14.2951 2.67175 15.5707C3.94736 16.8464 5.57259 17.7151 7.34192 18.067C9.11125 18.419 10.9452 18.2383 12.6119 17.548C14.2786 16.8576 15.7031 15.6885 16.7053 14.1886C17.7076 12.6886 18.2425 10.9251 18.2425 9.12114C18.2425 6.70207 17.2816 4.38208 15.571 2.67154C13.8605 0.960994 11.5405 1.4031e-05 9.12144 1.53496e-10ZM8.45575 8.51883H9.76284C10.3449 8.52396 10.9014 8.75864 11.3114 9.17186C11.7214 9.58508 11.9517 10.1434 11.9522 10.7255C11.9528 11.3076 11.7235 11.8664 11.3143 12.2804C10.9051 12.6944 10.349 12.9301 9.76697 12.9363V14.0245C9.76929 14.1197 9.75253 14.2144 9.7177 14.3031C9.68286 14.3917 9.63064 14.4725 9.56411 14.5407C9.49758 14.6089 9.41808 14.663 9.3303 14.7C9.24252 14.737 9.14823 14.7561 9.05298 14.7561C8.95773 14.7561 8.86344 14.737 8.77566 14.7C8.68788 14.663 8.60838 14.6089 8.54185 14.5407C8.47533 14.4725 8.4231 14.3917 8.38826 14.3031C8.35343 14.2144 8.33667 14.1197 8.33899 14.0245V12.937H6.84901C6.65959 12.937 6.47793 12.8618 6.34399 12.7278C6.21006 12.5939 6.13481 12.4122 6.13481 12.2228C6.13481 12.0334 6.21006 11.8518 6.34399 11.7178C6.47793 11.5839 6.65959 11.5086 6.84901 11.5086H9.76284C9.86588 11.5095 9.96807 11.4899 10.0635 11.4511C10.159 11.4122 10.2458 11.3549 10.3189 11.2823C10.3921 11.2097 10.4502 11.1234 10.4898 11.0283C10.5294 10.9332 10.5498 10.8312 10.5498 10.7281C10.5498 10.6251 10.5294 10.523 10.4898 10.4279C10.4502 10.3328 10.3921 10.2465 10.3189 10.1739C10.2458 10.1014 10.159 10.044 10.0635 10.0052C9.96807 9.96631 9.86588 9.94675 9.76284 9.9476H8.45575C7.85059 9.94893 7.26894 9.71341 6.83521 9.2914C6.40147 8.86939 6.15009 8.29442 6.13483 7.68945C6.11958 7.08449 6.34166 6.49757 6.75358 6.05424C7.16549 5.61091 7.73454 5.34637 8.33899 5.3172V4.21759C8.33667 4.12237 8.35343 4.02764 8.38826 3.93899C8.4231 3.85034 8.47533 3.76955 8.54185 3.70138C8.60838 3.63321 8.68788 3.57904 8.77566 3.54205C8.86344 3.50506 8.95773 3.48601 9.05298 3.48601C9.14823 3.48601 9.24252 3.50506 9.3303 3.54205C9.41808 3.57904 9.49758 3.63321 9.56411 3.70138C9.63064 3.76955 9.68286 3.85034 9.7177 3.93899C9.75253 4.02764 9.76929 4.12237 9.76697 4.21759V5.30508H11.3939C11.5833 5.30508 11.7649 5.38033 11.8989 5.51427C12.0328 5.64821 12.1081 5.82987 12.1081 6.01928C12.1081 6.2087 12.0328 6.39036 11.8989 6.5243C11.7649 6.65824 11.5833 6.73348 11.3939 6.73348H8.45575C8.33795 6.73258 8.22114 6.755 8.11205 6.79945C8.00295 6.8439 7.90374 6.90951 7.82012 6.99248C7.7365 7.07546 7.67013 7.17417 7.62484 7.28292C7.57955 7.39166 7.55623 7.5083 7.55623 7.6261C7.55623 7.74391 7.57955 7.86054 7.62484 7.96929C7.67013 8.07804 7.7365 8.17675 7.82012 8.25972C7.90374 8.3427 8.00295 8.40831 8.11205 8.45276C8.22114 8.49721 8.33795 8.51974 8.45575 8.51883Z" fill="url(#paint1_linear_435_985)"/>
<defs>
<linearGradient id="paint0_linear_435_985" x1="-0.771429" y1="15.6198" x2="21.5117" y2="16.4321" gradientUnits="userSpaceOnUse">
<stop stop-color="#1A49E9"/>
<stop offset="0.252064" stop-color="#DDB4C2"/>
<stop offset="0.654224" stop-color="#9B8AEA"/>
<stop offset="1" stop-color="#189DC8"/>
</linearGradient>
<linearGradient id="paint1_linear_435_985" x1="-4.27525" y1="-7.41094" x2="26.6424" y2="-6.41279" gradientUnits="userSpaceOnUse">
<stop stop-color="#1A49E9"/>
<stop offset="0.252064" stop-color="#DDB4C2"/>
<stop offset="0.654224" stop-color="#9B8AEA"/>
<stop offset="1" stop-color="#189DC8"/>
</linearGradient>
</defs>
</svg>
