<svg width="38" height="32" viewBox="0 0 38 32" fill="none" xmlns="http://www.w3.org/2000/svg">
<g id="Group 1000001667">
<path id="Vector" fill-rule="evenodd" clip-rule="evenodd" d="M15.334 26.4469V25.8532C15.334 23.8133 16.9895 22.1578 19.0294 22.1578C21.0693 22.1578 22.7249 23.8133 22.7249 25.8532V26.4469C27.0288 24.9244 30.1157 20.8163 30.1157 15.9926C30.1157 9.87415 25.1478 4.90625 19.0294 4.90625C12.911 4.90625 7.94312 9.87415 7.94312 15.9926C7.94312 20.8163 11.03 24.9244 15.334 26.4469ZM21.7973 18.4562C21.1198 19.21 20.1393 19.6843 19.0479 19.6843C17.9479 19.6843 16.96 19.2014 16.2825 18.4377C15.8316 17.929 15.0519 17.8822 14.5432 18.333C14.0344 18.7851 13.9876 19.5636 14.4385 20.0723C15.568 21.3448 17.215 22.1479 19.0479 22.1479C20.866 22.1479 22.5019 21.3583 23.629 20.1031C24.0835 19.5981 24.0417 18.8183 23.5366 18.3638C23.0303 17.9093 22.2518 17.9511 21.7973 18.4562Z" fill="url(#paint0_linear_435_982)"/>
<path id="Vector_2" fill-rule="evenodd" clip-rule="evenodd" d="M3.41989 12.4093C1.77296 12.7776 0.539917 14.2496 0.539917 16.0074C0.539917 18.0436 2.19301 19.6954 4.22796 19.6954C6.26414 19.6954 7.916 18.0436 7.916 16.0074C7.916 14.5662 7.087 13.3171 5.88105 12.7111C7.34937 6.8267 12.6831 2.46362 19.0294 2.46362C25.3695 2.46362 30.6984 6.81931 32.1741 12.6938C30.9484 13.2925 30.1034 14.5526 30.1034 16.0074C30.1034 17.4597 30.9447 18.7161 32.1654 19.3185C32.1605 19.3382 32.1544 19.3591 32.1494 19.3789C30.7402 24.821 26.0175 28.9377 20.2612 29.4575V25.8533C20.2612 25.1733 19.7094 24.6214 19.0294 24.6214C18.3494 24.6214 17.7976 25.1733 17.7976 25.8533V30.7682C17.7976 31.4481 18.3494 32 19.0294 32C19.1156 32 19.2006 31.9914 19.2819 31.9741C26.6223 31.8608 32.7703 26.8055 34.5342 19.9972C34.5687 19.8654 34.6007 19.7324 34.6315 19.5994C36.2625 19.2187 37.4795 17.7541 37.4795 16.0074C37.4795 14.2644 36.2674 12.8022 34.6414 12.4191C33.0154 5.31157 26.6395 0 19.0294 0C11.423 0 5.04958 5.30664 3.41989 12.4093Z" fill="url(#paint1_linear_435_982)"/>
</g>
<defs>
<linearGradient id="paint0_linear_435_982" x1="2.74646" y1="-3.84467" x2="40.3231" y2="-2.59595" gradientUnits="userSpaceOnUse">
<stop stop-color="#1A49E9"/>
<stop offset="0.252064" stop-color="#DDB4C2"/>
<stop offset="0.654224" stop-color="#9B8AEA"/>
<stop offset="1" stop-color="#189DC8"/>
</linearGradient>
<linearGradient id="paint1_linear_435_982" x1="-8.11771" y1="-13" x2="54.4671" y2="-10.6676" gradientUnits="userSpaceOnUse">
<stop stop-color="#1A49E9"/>
<stop offset="0.252064" stop-color="#DDB4C2"/>
<stop offset="0.654224" stop-color="#9B8AEA"/>
<stop offset="1" stop-color="#189DC8"/>
</linearGradient>
</defs>
</svg>
